<?xml version="1.0" encoding="utf-8"?><svg xmlns="http://www.w3.org/2000/svg" xmlns:xlink="http://www.w3.org/1999/xlink" width="1920" height="1080" preserveAspectRatio="xMidYMid" viewBox="0 0 1920 1080" style="z-index:1;display:block;background-color:rgb(241, 242, 243);animation-play-state:paused" ><g transform="" style="animation-play-state:paused" ><g id="bk-0.7731062487867146" style="animation-play-state:paused" ><path d="M950 458L804 476L923 595z" stroke="#8fb697" fill="#8fb697" style="animation-play-state:paused" ></path>
<path d="M804 476L793 629L923 595z" stroke="#92b898" fill="#92b898" style="animation-play-state:paused" ></path>
<path d="M950 458L798 306L804 476z" stroke="#95ba99" fill="#95ba99" style="animation-play-state:paused" ></path>
<path d="M804 476L632 468L793 629z" stroke="#8fb697" fill="#8fb697" style="animation-play-state:paused" ></path>
<path d="M923 595L1099 443L950 458z" stroke="#8fb697" fill="#8fb697" style="animation-play-state:paused" ></path>
<path d="M950 458L940 284L798 306z" stroke="#99bc9a" fill="#99bc9a" style="animation-play-state:paused" ></path>
<path d="M1099 443L940 284L950 458z" stroke="#96ba99" fill="#96ba99" style="animation-play-state:paused" ></path>
<path d="M798 306L632 468L804 476z" stroke="#96ba99" fill="#96ba99" style="animation-play-state:paused" ></path>
<path d="M622 622L709 709L793 629z" stroke="#97bb99" fill="#97bb99" style="animation-play-state:paused" ></path>
<path d="M959 795L1057 729L923 595z" stroke="#9cbd9b" fill="#9cbd9b" style="animation-play-state:paused" ></path>
<path d="M959 795L923 595L793 629z" stroke="#99bc9a" fill="#99bc9a" style="animation-play-state:paused" ></path>
<path d="M923 595L1131 639L1099 443z" stroke="#93b898" fill="#93b898" style="animation-play-state:paused" ></path>
<path d="M1057 729L1131 639L923 595z" stroke="#99bc9a" fill="#99bc9a" style="animation-play-state:paused" ></path>
<path d="M632 468L622 622L793 629z" stroke="#92b898" fill="#92b898" style="animation-play-state:paused" ></path>
<path d="M870 870L959 795L793 629z" stroke="#9fbf9c" fill="#9fbf9c" style="animation-play-state:paused" ></path>
<path d="M1220 400L1090 270L1099 443z" stroke="#97ba99" fill="#97ba99" style="animation-play-state:paused" ></path>
<path d="M1099 443L1090 270L940 284z" stroke="#9abc9a" fill="#9abc9a" style="animation-play-state:paused" ></path>
<path d="M709 709L870 870L793 629z" stroke="#9dbe9b" fill="#9dbe9b" style="animation-play-state:paused" ></path>
<path d="M1261 769L1131 639L1057 729z" stroke="#9dbe9b" fill="#9dbe9b" style="animation-play-state:paused" ></path>
<path d="M1131 639L1220 400L1099 443z" stroke="#8fb697" fill="#8fb697" style="animation-play-state:paused" ></path>
<path d="M622 622L540 704L709 709z" stroke="#98bb9a" fill="#98bb9a" style="animation-play-state:paused" ></path>
<path d="M709 709L713 877L870 870z" stroke="#a1c09d" fill="#a1c09d" style="animation-play-state:paused" ></path>
<path d="M399 563L540 704L622 622z" stroke="#95b999" fill="#95b999" style="animation-play-state:paused" ></path>
<path d="M940 284L788 132L798 306z" stroke="#a1c09c" fill="#a1c09c" style="animation-play-state:paused" ></path>
<path d="M798 306L561 233L632 468z" stroke="#9bbd9b" fill="#9bbd9b" style="animation-play-state:paused" ></path>
<path d="M868 48L788 132L940 284z" stroke="#a6c29e" fill="#a6c29e" style="animation-play-state:paused" ></path>
<path d="M540 704L713 877L709 709z" stroke="#9dbe9b" fill="#9dbe9b" style="animation-play-state:paused" ></path>
<path d="M1261 769L1294 638L1131 639z" stroke="#9cbd9b" fill="#9cbd9b" style="animation-play-state:paused" ></path>
<path d="M1131 639L1294 638L1220 400z" stroke="#94b998" fill="#94b998" style="animation-play-state:paused" ></path>
<path d="M1261 769L1057 729L1124 960z" stroke="#a4c19d" fill="#a4c19d" style="animation-play-state:paused" ></path>
<path d="M788 132L561 233L798 306z" stroke="#a2c19d" fill="#a2c19d" style="animation-play-state:paused" ></path>
<path d="M632 468L442 442L622 622z" stroke="#90b797" fill="#90b797" style="animation-play-state:paused" ></path>
<path d="M561 233L442 442L632 468z" stroke="#99bb9a" fill="#99bb9a" style="animation-play-state:paused" ></path>
<path d="M1276 292L1119 135L1090 270z" stroke="#a0bf9c" fill="#a0bf9c" style="animation-play-state:paused" ></path>
<path d="M1090 270L1119 135L940 284z" stroke="#a1c09c" fill="#a1c09c" style="animation-play-state:paused" ></path>
<path d="M1367 383L1276 292L1220 400z" stroke="#97bb99" fill="#97bb99" style="animation-play-state:paused" ></path>
<path d="M1220 400L1276 292L1090 270z" stroke="#9abc9a" fill="#9abc9a" style="animation-play-state:paused" ></path>
<path d="M1124 960L1057 729L959 795z" stroke="#a4c19d" fill="#a4c19d" style="animation-play-state:paused" ></path>
<path d="M1119 135L868 48L940 284z" stroke="#a5c29e" fill="#a5c29e" style="animation-play-state:paused" ></path>
<path d="M788 132L585 93L561 233z" stroke="#a7c39e" fill="#a7c39e" style="animation-play-state:paused" ></path>
<path d="M442 442L399 563L622 622z" stroke="#8fb697" fill="#8fb697" style="animation-play-state:paused" ></path>
<path d="M540 704L611 939L713 877z" stroke="#a2c09d" fill="#a2c09d" style="animation-play-state:paused" ></path>
<path d="M1410 590L1367 383L1294 638z" stroke="#93b898" fill="#93b898" style="animation-play-state:paused" ></path>
<path d="M1294 638L1367 383L1220 400z" stroke="#90b697" fill="#90b697" style="animation-play-state:paused" ></path>
<path d="M1276 292L1272 124L1119 135z" stroke="#a3c19d" fill="#a3c19d" style="animation-play-state:paused" ></path>
<path d="M421 913L611 939L540 704z" stroke="#a2c09d" fill="#a2c09d" style="animation-play-state:paused" ></path>
<path d="M756 1084L924 1088L870 870z" stroke="#abc5a0" fill="#abc5a0" style="animation-play-state:paused" ></path>
<path d="M870 870L1124 960L959 795z" stroke="#a6c29e" fill="#a6c29e" style="animation-play-state:paused" ></path>
<path d="M924 1088L1124 960L870 870z" stroke="#aac5a0" fill="#aac5a0" style="animation-play-state:paused" ></path>
<path d="M761 -59L585 93L788 132z" stroke="#acc6a0" fill="#acc6a0" style="animation-play-state:paused" ></path>
<path d="M561 233L399 235L442 442z" stroke="#9ebe9b" fill="#9ebe9b" style="animation-play-state:paused" ></path>
<path d="M1420 764L1294 638L1261 769z" stroke="#9fbf9c" fill="#9fbf9c" style="animation-play-state:paused" ></path>
<path d="M1420 764L1410 590L1294 638z" stroke="#9bbd9a" fill="#9bbd9a" style="animation-play-state:paused" ></path>
<path d="M399 563L385 713L540 704z" stroke="#96ba99" fill="#96ba99" style="animation-play-state:paused" ></path>
<path d="M1124 960L1246 918L1261 769z" stroke="#a7c39f" fill="#a7c39f" style="animation-play-state:paused" ></path>
<path d="M1410 262L1272 124L1276 292z" stroke="#a0bf9c" fill="#a0bf9c" style="animation-play-state:paused" ></path>
<path d="M891 -93L761 -59L868 48z" stroke="#b0c8a2" fill="#b0c8a2" style="animation-play-state:paused" ></path>
<path d="M464 136L399 235L561 233z" stroke="#a4c29e" fill="#a4c29e" style="animation-play-state:paused" ></path>
<path d="M442 442L289 453L399 563z" stroke="#93b898" fill="#93b898" style="animation-play-state:paused" ></path>
<path d="M399 563L274 602L385 713z" stroke="#93b898" fill="#93b898" style="animation-play-state:paused" ></path>
<path d="M585 93L464 136L561 233z" stroke="#a7c39e" fill="#a7c39e" style="animation-play-state:paused" ></path>
<path d="M756 1084L870 870L713 877z" stroke="#a8c49f" fill="#a8c49f" style="animation-play-state:paused" ></path>
<path d="M1124 960L1265 1101L1246 918z" stroke="#adc6a1" fill="#adc6a1" style="animation-play-state:paused" ></path>
<path d="M611 939L756 1084L713 877z" stroke="#a8c49f" fill="#a8c49f" style="animation-play-state:paused" ></path>
<path d="M1367 383L1410 262L1276 292z" stroke="#9abc9a" fill="#9abc9a" style="animation-play-state:paused" ></path>
<path d="M1575 427L1410 262L1367 383z" stroke="#97ba99" fill="#97ba99" style="animation-play-state:paused" ></path>
<path d="M868 48L761 -59L788 132z" stroke="#acc6a1" fill="#acc6a1" style="animation-play-state:paused" ></path>
<path d="M585 93L569 -87L464 136z" stroke="#adc6a1" fill="#adc6a1" style="animation-play-state:paused" ></path>
<path d="M891 -93L868 48L1056 -92z" stroke="#b1c8a3" fill="#b1c8a3" style="animation-play-state:paused" ></path>
<path d="M1422 930L1420 764L1261 769z" stroke="#a5c29e" fill="#a5c29e" style="animation-play-state:paused" ></path>
<path d="M1410 590L1575 427L1367 383z" stroke="#90b697" fill="#90b697" style="animation-play-state:paused" ></path>
<path d="M399 235L289 453L442 442z" stroke="#9abc9a" fill="#9abc9a" style="animation-play-state:paused" ></path>
<path d="M1056 -92L868 48L1119 135z" stroke="#acc6a1" fill="#acc6a1" style="animation-play-state:paused" ></path>
<path d="M297 789L421 913L385 713z" stroke="#9ebe9b" fill="#9ebe9b" style="animation-play-state:paused" ></path>
<path d="M385 713L421 913L540 704z" stroke="#9dbe9b" fill="#9dbe9b" style="animation-play-state:paused" ></path>
<path d="M611 939L568 1060L756 1084z" stroke="#aac5a0" fill="#aac5a0" style="animation-play-state:paused" ></path>
<path d="M289 453L274 602L399 563z" stroke="#90b797" fill="#90b797" style="animation-play-state:paused" ></path>
<path d="M1089 1253L1095 1095L924 1088z" stroke="#b2c9a3" fill="#b2c9a3" style="animation-play-state:paused" ></path>
<path d="M924 1088L1095 1095L1124 960z" stroke="#aec7a2" fill="#aec7a2" style="animation-play-state:paused" ></path>
<path d="M1246 918L1422 930L1261 769z" stroke="#a7c39f" fill="#a7c39f" style="animation-play-state:paused" ></path>
<path d="M421 913L568 1060L611 939z" stroke="#a7c39f" fill="#a7c39f" style="animation-play-state:paused" ></path>
<path d="M1231 -81L1119 135L1272 124z" stroke="#aac5a0" fill="#aac5a0" style="animation-play-state:paused" ></path>
<path d="M1231 -81L1056 -92L1119 135z" stroke="#afc7a2" fill="#afc7a2" style="animation-play-state:paused" ></path>
<path d="M274 602L297 789L385 713z" stroke="#97bb99" fill="#97bb99" style="animation-play-state:paused" ></path>
<path d="M1410 262L1373 61L1272 124z" stroke="#a5c29e" fill="#a5c29e" style="animation-play-state:paused" ></path>
<path d="M1369 1041L1422 930L1246 918z" stroke="#acc6a1" fill="#acc6a1" style="animation-play-state:paused" ></path>
<path d="M770 -214L569 -87L761 -59z" stroke="#b6cba5" fill="#b6cba5" style="animation-play-state:paused" ></path>
<path d="M761 -59L569 -87L585 93z" stroke="#b0c8a2" fill="#b0c8a2" style="animation-play-state:paused" ></path>
<path d="M219 55L249 249L399 235z" stroke="#a6c39e" fill="#a6c39e" style="animation-play-state:paused" ></path>
<path d="M219 55L399 235L464 136z" stroke="#a8c49f" fill="#a8c49f" style="animation-play-state:paused" ></path>
<path d="M399 235L249 249L289 453z" stroke="#9ebe9b" fill="#9ebe9b" style="animation-play-state:paused" ></path>
<path d="M289 453L93 585L274 602z" stroke="#90b797" fill="#90b797" style="animation-play-state:paused" ></path>
<path d="M1550 894L1541 721L1420 764z" stroke="#a4c19d" fill="#a4c19d" style="animation-play-state:paused" ></path>
<path d="M1420 764L1541 721L1410 590z" stroke="#9dbe9b" fill="#9dbe9b" style="animation-play-state:paused" ></path>
<path d="M1410 262L1540 228L1373 61z" stroke="#a3c19d" fill="#a3c19d" style="animation-play-state:paused" ></path>
<path d="M1373 61L1231 -81L1272 124z" stroke="#acc6a0" fill="#acc6a0" style="animation-play-state:paused" ></path>
<path d="M780 1272L882 1210L756 1084z" stroke="#b1c9a3" fill="#b1c9a3" style="animation-play-state:paused" ></path>
<path d="M756 1084L882 1210L924 1088z" stroke="#b0c8a2" fill="#b0c8a2" style="animation-play-state:paused" ></path>
<path d="M1095 1095L1265 1101L1124 960z" stroke="#afc8a2" fill="#afc8a2" style="animation-play-state:paused" ></path>
<path d="M1625 641L1575 427L1410 590z" stroke="#94b998" fill="#94b998" style="animation-play-state:paused" ></path>
<path d="M1206 1206L1265 1101L1095 1095z" stroke="#b3caa4" fill="#b3caa4" style="animation-play-state:paused" ></path>
<path d="M1265 1101L1369 1041L1246 918z" stroke="#afc7a2" fill="#afc7a2" style="animation-play-state:paused" ></path>
<path d="M1773 789L1625 641L1541 721z" stroke="#9fbf9c" fill="#9fbf9c" style="animation-play-state:paused" ></path>
<path d="M1575 427L1540 228L1410 262z" stroke="#9abc9a" fill="#9abc9a" style="animation-play-state:paused" ></path>
<path d="M283 939L403 1059L421 913z" stroke="#a6c29e" fill="#a6c29e" style="animation-play-state:paused" ></path>
<path d="M421 913L403 1059L568 1060z" stroke="#a8c49f" fill="#a8c49f" style="animation-play-state:paused" ></path>
<path d="M629 1285L780 1272L756 1084z" stroke="#b1c8a3" fill="#b1c8a3" style="animation-play-state:paused" ></path>
<path d="M138 794L283 939L297 789z" stroke="#9ebf9c" fill="#9ebf9c" style="animation-play-state:paused" ></path>
<path d="M297 789L283 939L421 913z" stroke="#a1c09c" fill="#a1c09c" style="animation-play-state:paused" ></path>
<path d="M138 794L297 789L274 602z" stroke="#98bb9a" fill="#98bb9a" style="animation-play-state:paused" ></path>
<path d="M891 -257L770 -214L891 -93z" stroke="#b9cea8" fill="#b9cea8" style="animation-play-state:paused" ></path>
<path d="M891 -93L770 -214L761 -59z" stroke="#b6cba5" fill="#b6cba5" style="animation-play-state:paused" ></path>
<path d="M891 -257L891 -93L1056 -92z" stroke="#b7cca6" fill="#b7cca6" style="animation-play-state:paused" ></path>
<path d="M1550 894L1420 764L1422 930z" stroke="#a8c39f" fill="#a8c39f" style="animation-play-state:paused" ></path>
<path d="M1541 721L1625 641L1410 590z" stroke="#9bbc9a" fill="#9bbc9a" style="animation-play-state:paused" ></path>
<path d="M1712 236L1609 133L1540 228z" stroke="#a1c09c" fill="#a1c09c" style="animation-play-state:paused" ></path>
<path d="M1089 1253L1206 1206L1095 1095z" stroke="#b4caa4" fill="#b4caa4" style="animation-play-state:paused" ></path>
<path d="M1265 1101L1428 1264L1369 1041z" stroke="#b5caa4" fill="#b5caa4" style="animation-play-state:paused" ></path>
<path d="M629 1285L756 1084L568 1060z" stroke="#aec7a2" fill="#aec7a2" style="animation-play-state:paused" ></path>
<path d="M882 1210L1089 1253L924 1088z" stroke="#b3c9a3" fill="#b3c9a3" style="animation-play-state:paused" ></path>
<path d="M780 1272L1089 1253L882 1210z" stroke="#b4caa4" fill="#b4caa4" style="animation-play-state:paused" ></path>
<path d="M1626 1134L1422 930L1369 1041z" stroke="#b1c8a3" fill="#b1c8a3" style="animation-play-state:paused" ></path>
<path d="M1626 1134L1550 894L1422 930z" stroke="#aec7a2" fill="#aec7a2" style="animation-play-state:paused" ></path>
<path d="M1070 -242L891 -257L1056 -92z" stroke="#bacea9" fill="#bacea9" style="animation-play-state:paused" ></path>
<path d="M1276 -200L1070 -242L1231 -81z" stroke="#b8cda7" fill="#b8cda7" style="animation-play-state:paused" ></path>
<path d="M1231 -81L1070 -242L1056 -92z" stroke="#b6cba6" fill="#b6cba6" style="animation-play-state:paused" ></path>
<path d="M387 -105L308 -20L464 136z" stroke="#b0c8a2" fill="#b0c8a2" style="animation-play-state:paused" ></path>
<path d="M387 -105L464 136L569 -87z" stroke="#b1c8a3" fill="#b1c8a3" style="animation-play-state:paused" ></path>
<path d="M1532 -108L1367 -109L1373 61z" stroke="#b0c8a2" fill="#b0c8a2" style="animation-play-state:paused" ></path>
<path d="M1373 61L1367 -109L1231 -81z" stroke="#b0c8a2" fill="#b0c8a2" style="animation-play-state:paused" ></path>
<path d="M84 412L289 453L249 249z" stroke="#9bbd9b" fill="#9bbd9b" style="animation-play-state:paused" ></path>
<path d="M84 412L93 585L289 453z" stroke="#94b999" fill="#94b999" style="animation-play-state:paused" ></path>
<path d="M422 -234L387 -105L569 -87z" stroke="#b8cda7" fill="#b8cda7" style="animation-play-state:paused" ></path>
<path d="M575 -245L569 -87L770 -214z" stroke="#bacea9" fill="#bacea9" style="animation-play-state:paused" ></path>
<path d="M93 585L138 794L274 602z" stroke="#94b998" fill="#94b998" style="animation-play-state:paused" ></path>
<path d="M283 939L216 1036L403 1059z" stroke="#a7c39e" fill="#a7c39e" style="animation-play-state:paused" ></path>
<path d="M49 213L84 412L249 249z" stroke="#a1c09c" fill="#a1c09c" style="animation-play-state:paused" ></path>
<path d="M115 115L219 55L76 -88z" stroke="#afc7a2" fill="#afc7a2" style="animation-play-state:paused" ></path>
<path d="M308 -20L219 55L464 136z" stroke="#adc6a1" fill="#adc6a1" style="animation-play-state:paused" ></path>
<path d="M411 1231L568 1060L403 1059z" stroke="#acc6a0" fill="#acc6a0" style="animation-play-state:paused" ></path>
<path d="M411 1231L629 1285L568 1060z" stroke="#aec7a2" fill="#aec7a2" style="animation-play-state:paused" ></path>
<path d="M780 1272L1428 1264L1089 1253z" stroke="#b6cca6" fill="#b6cca6" style="animation-play-state:paused" ></path>
<path d="M1367 -109L1276 -200L1231 -81z" stroke="#b5cba5" fill="#b5cba5" style="animation-play-state:paused" ></path>
<path d="M1540 228L1609 133L1373 61z" stroke="#a5c29e" fill="#a5c29e" style="animation-play-state:paused" ></path>
<path d="M1712 236L1540 228L1575 427z" stroke="#9bbd9a" fill="#9bbd9a" style="animation-play-state:paused" ></path>
<path d="M891 -257L575 -245L770 -214z" stroke="#bdd0ab" fill="#bdd0ab" style="animation-play-state:paused" ></path>
<path d="M95 915L216 1036L283 939z" stroke="#a4c29d" fill="#a4c29d" style="animation-play-state:paused" ></path>
<path d="M282 1266L411 1231L403 1059z" stroke="#acc6a1" fill="#acc6a1" style="animation-play-state:paused" ></path>
<path d="M1773 789L1744 596L1625 641z" stroke="#9dbe9b" fill="#9dbe9b" style="animation-play-state:paused" ></path>
<path d="M1625 641L1744 596L1575 427z" stroke="#95b999" fill="#95b999" style="animation-play-state:paused" ></path>
<path d="M76 -88L219 55L308 -20z" stroke="#b1c9a3" fill="#b1c9a3" style="animation-play-state:paused" ></path>
<path d="M219 55L115 115L249 249z" stroke="#a9c49f" fill="#a9c49f" style="animation-play-state:paused" ></path>
<path d="M1770 458L1712 236L1575 427z" stroke="#95ba99" fill="#95ba99" style="animation-play-state:paused" ></path>
<path d="M1609 133L1532 -108L1373 61z" stroke="#acc6a0" fill="#acc6a0" style="animation-play-state:paused" ></path>
<path d="M575 -245L422 -234L569 -87z" stroke="#bacfa9" fill="#bacfa9" style="animation-play-state:paused" ></path>
<path d="M387 -105L283 -209L308 -20z" stroke="#b6cca6" fill="#b6cca6" style="animation-play-state:paused" ></path>
<path d="M138 794L95 915L283 939z" stroke="#a0bf9c" fill="#a0bf9c" style="animation-play-state:paused" ></path>
<path d="M-23 797L95 915L138 794z" stroke="#9dbe9b" fill="#9dbe9b" style="animation-play-state:paused" ></path>
<path d="M-32 624L138 794L93 585z" stroke="#94b998" fill="#94b998" style="animation-play-state:paused" ></path>
<path d="M115 115L49 213L249 249z" stroke="#a6c39e" fill="#a6c39e" style="animation-play-state:paused" ></path>
<path d="M-61 431L-32 624L93 585z" stroke="#92b898" fill="#92b898" style="animation-play-state:paused" ></path>
<path d="M1744 596L1770 458L1575 427z" stroke="#91b797" fill="#91b797" style="animation-play-state:paused" ></path>
<path d="M1719 -85L1532 -108L1609 133z" stroke="#aec7a2" fill="#aec7a2" style="animation-play-state:paused" ></path>
<path d="M1367 -109L1359 -281L1276 -200z" stroke="#b9cea8" fill="#b9cea8" style="animation-play-state:paused" ></path>
<path d="M-61 431L93 585L84 412z" stroke="#96ba99" fill="#96ba99" style="animation-play-state:paused" ></path>
<path d="M1089 1253L1428 1264L1206 1206z" stroke="#b7cca7" fill="#b7cca7" style="animation-play-state:paused" ></path>
<path d="M1206 1206L1428 1264L1265 1101z" stroke="#b6cca6" fill="#b6cca6" style="animation-play-state:paused" ></path>
<path d="M1550 894L1773 789L1541 721z" stroke="#a5c29e" fill="#a5c29e" style="animation-play-state:paused" ></path>
<path d="M1608 1280L1428 1264L780 1272z" stroke="#b8cda8" fill="#b8cda8" style="animation-play-state:paused" ></path>
<path d="M1532 -108L1359 -281L1367 -109z" stroke="#b7cca6" fill="#b7cca6" style="animation-play-state:paused" ></path>
<path d="M1276 -200L1359 -281L1070 -242z" stroke="#bcd0ab" fill="#bcd0ab" style="animation-play-state:paused" ></path>
<path d="M1070 -242L1359 -281L891 -257z" stroke="#bdd1ac" fill="#bdd1ac" style="animation-play-state:paused" ></path>
<path d="M891 -257L-111 -275L575 -245z" stroke="#bfd2ad" fill="#bfd2ad" style="animation-play-state:paused" ></path>
<path d="M1777 957L1773 789L1550 894z" stroke="#a9c49f" fill="#a9c49f" style="animation-play-state:paused" ></path>
<path d="M1744 596L1953 477L1770 458z" stroke="#92b898" fill="#92b898" style="animation-play-state:paused" ></path>
<path d="M422 -234L283 -209L387 -105z" stroke="#bacfa9" fill="#bacfa9" style="animation-play-state:paused" ></path>
<path d="M-25 139L-62 266L49 213z" stroke="#a6c39e" fill="#a6c39e" style="animation-play-state:paused" ></path>
<path d="M-62 266L-61 431L84 412z" stroke="#9cbd9b" fill="#9cbd9b" style="animation-play-state:paused" ></path>
<path d="M-215 769L-23 797L-32 624z" stroke="#96ba99" fill="#96ba99" style="animation-play-state:paused" ></path>
<path d="M-32 624L-23 797L138 794z" stroke="#97bb99" fill="#97bb99" style="animation-play-state:paused" ></path>
<path d="M119 1103L282 1266L216 1036z" stroke="#aac4a0" fill="#aac4a0" style="animation-play-state:paused" ></path>
<path d="M119 1103L216 1036L95 915z" stroke="#a5c29e" fill="#a5c29e" style="animation-play-state:paused" ></path>
<path d="M216 1036L282 1266L403 1059z" stroke="#aac5a0" fill="#aac5a0" style="animation-play-state:paused" ></path>
<path d="M411 1231L282 1266L629 1285z" stroke="#afc7a2" fill="#afc7a2" style="animation-play-state:paused" ></path>
<path d="M1712 236L1759 119L1609 133z" stroke="#a4c19d" fill="#a4c19d" style="animation-play-state:paused" ></path>
<path d="M1532 -108L1584 -220L1359 -281z" stroke="#b9cea8" fill="#b9cea8" style="animation-play-state:paused" ></path>
<path d="M1950 310L1759 119L1712 236z" stroke="#a0bf9c" fill="#a0bf9c" style="animation-play-state:paused" ></path>
<path d="M-25 959L119 1103L95 915z" stroke="#a4c19d" fill="#a4c19d" style="animation-play-state:paused" ></path>
<path d="M1428 1264L1626 1134L1369 1041z" stroke="#b6cba6" fill="#b6cba6" style="animation-play-state:paused" ></path>
<path d="M49 213L-62 266L84 412z" stroke="#a1c09c" fill="#a1c09c" style="animation-play-state:paused" ></path>
<path d="M-25 139L49 213L115 115z" stroke="#a9c49f" fill="#a9c49f" style="animation-play-state:paused" ></path>
<path d="M76 -88L-25 139L115 115z" stroke="#aec7a1" fill="#aec7a1" style="animation-play-state:paused" ></path>
<path d="M1935 951L1851 703L1773 789z" stroke="#a6c39e" fill="#a6c39e" style="animation-play-state:paused" ></path>
<path d="M1773 789L1851 703L1744 596z" stroke="#9ebf9c" fill="#9ebf9c" style="animation-play-state:paused" ></path>
<path d="M1770 458L1950 310L1712 236z" stroke="#98bb9a" fill="#98bb9a" style="animation-play-state:paused" ></path>
<path d="M1626 1134L1777 957L1550 894z" stroke="#afc8a2" fill="#afc8a2" style="animation-play-state:paused" ></path>
<path d="M137 -191L76 -88L308 -20z" stroke="#b6cca6" fill="#b6cca6" style="animation-play-state:paused" ></path>
<path d="M-23 797L-25 959L95 915z" stroke="#9fbf9c" fill="#9fbf9c" style="animation-play-state:paused" ></path>
<path d="M119 1103L124 1272L282 1266z" stroke="#abc5a0" fill="#abc5a0" style="animation-play-state:paused" ></path>
<path d="M-96 1052L-25 959L-182 966z" stroke="#a2c19d" fill="#a2c19d" style="animation-play-state:paused" ></path>
<path d="M1719 -85L1584 -220L1532 -108z" stroke="#b5cba5" fill="#b5cba5" style="animation-play-state:paused" ></path>
<path d="M-111 -275L137 -191L283 -209z" stroke="#bed1ac" fill="#bed1ac" style="animation-play-state:paused" ></path>
<path d="M283 -209L137 -191L308 -20z" stroke="#b8cda8" fill="#b8cda8" style="animation-play-state:paused" ></path>
<path d="M1759 119L1719 -85L1609 133z" stroke="#aac5a0" fill="#aac5a0" style="animation-play-state:paused" ></path>
<path d="M1428 1264L1608 1280L1626 1134z" stroke="#bacea9" fill="#bacea9" style="animation-play-state:paused" ></path>
<path d="M1626 1134L1761 1105L1777 957z" stroke="#b4caa4" fill="#b4caa4" style="animation-play-state:paused" ></path>
<path d="M629 1285L1608 1280L780 1272z" stroke="#b5cba5" fill="#b5cba5" style="animation-play-state:paused" ></path>
<path d="M1701 1209L1761 1105L1626 1134z" stroke="#b8cda7" fill="#b8cda7" style="animation-play-state:paused" ></path>
<path d="M2050 738L1946 634L1851 703z" stroke="#9ebf9c" fill="#9ebf9c" style="animation-play-state:paused" ></path>
<path d="M1935 951L1773 789L1777 957z" stroke="#abc5a0" fill="#abc5a0" style="animation-play-state:paused" ></path>
<path d="M1851 703L1946 634L1744 596z" stroke="#9bbd9a" fill="#9bbd9a" style="animation-play-state:paused" ></path>
<path d="M1759 119L1876 72L1719 -85z" stroke="#abc5a0" fill="#abc5a0" style="animation-play-state:paused" ></path>
<path d="M1946 634L1953 477L1744 596z" stroke="#96ba99" fill="#96ba99" style="animation-play-state:paused" ></path>
<path d="M1608 1280L1701 1209L1626 1134z" stroke="#bacea9" fill="#bacea9" style="animation-play-state:paused" ></path>
<path d="M-66 1246L124 1272L119 1103z" stroke="#a9c4a0" fill="#a9c4a0" style="animation-play-state:paused" ></path>
<path d="M282 1266L124 1272L629 1285z" stroke="#aec7a1" fill="#aec7a1" style="animation-play-state:paused" ></path>
<path d="M-62 266L-202 454L-61 431z" stroke="#9cbd9b" fill="#9cbd9b" style="animation-play-state:paused" ></path>
<path d="M-61 431L-202 454L-32 624z" stroke="#95b999" fill="#95b999" style="animation-play-state:paused" ></path>
<path d="M-247 245L-202 454L-62 266z" stroke="#a0c09c" fill="#a0c09c" style="animation-play-state:paused" ></path>
<path d="M-247 245L-62 266L-25 139z" stroke="#a6c39e" fill="#a6c39e" style="animation-play-state:paused" ></path>
<path d="M1953 477L1950 310L1770 458z" stroke="#92b898" fill="#92b898" style="animation-play-state:paused" ></path>
<path d="M1950 310L1876 72L1759 119z" stroke="#a3c19d" fill="#a3c19d" style="animation-play-state:paused" ></path>
<path d="M-202 454L-217 603L-32 624z" stroke="#92b898" fill="#92b898" style="animation-play-state:paused" ></path>
<path d="M-25 959L-96 1052L119 1103z" stroke="#a5c29e" fill="#a5c29e" style="animation-play-state:paused" ></path>
<path d="M-182 966L-25 959L-23 797z" stroke="#9fbf9c" fill="#9fbf9c" style="animation-play-state:paused" ></path>
<path d="M-217 603L-215 769L-32 624z" stroke="#92b898" fill="#92b898" style="animation-play-state:paused" ></path>
<path d="M1890 -242L1701 -267L1719 -85z" stroke="#b9cda8" fill="#b9cda8" style="animation-play-state:paused" ></path>
<path d="M1719 -85L1701 -267L1584 -220z" stroke="#b8cda7" fill="#b8cda7" style="animation-play-state:paused" ></path>
<path d="M1584 -220L1701 -267L1359 -281z" stroke="#bcd0ab" fill="#bcd0ab" style="animation-play-state:paused" ></path>
<path d="M1936 1280L1879 1059L1761 1105z" stroke="#b9cda8" fill="#b9cda8" style="animation-play-state:paused" ></path>
<path d="M1761 1105L1879 1059L1777 957z" stroke="#b3c9a3" fill="#b3c9a3" style="animation-play-state:paused" ></path>
<path d="M-111 -275L-83 -83L76 -88z" stroke="#bacea9" fill="#bacea9" style="animation-play-state:paused" ></path>
<path d="M76 -88L-83 -83L-25 139z" stroke="#b2c9a3" fill="#b2c9a3" style="animation-play-state:paused" ></path>
<path d="M1879 1059L1935 951L1777 957z" stroke="#b0c8a2" fill="#b0c8a2" style="animation-play-state:paused" ></path>
<path d="M1946 634L2082 606L1953 477z" stroke="#96ba99" fill="#96ba99" style="animation-play-state:paused" ></path>
<path d="M-215 769L-182 966L-23 797z" stroke="#9bbd9b" fill="#9bbd9b" style="animation-play-state:paused" ></path>
<path d="M-96 1052L-66 1246L119 1103z" stroke="#a7c39f" fill="#a7c39f" style="animation-play-state:paused" ></path>
<path d="M-265 63L-247 245L-25 139z" stroke="#aac5a0" fill="#aac5a0" style="animation-play-state:paused" ></path>
<path d="M-384 600L-215 769L-217 603z" stroke="#90b797" fill="#90b797" style="animation-play-state:paused" ></path>
<path d="M-384 600L-342 806L-215 769z" stroke="#94b998" fill="#94b998" style="animation-play-state:paused" ></path>
<path d="M2057 -75L1875 -93L1876 72z" stroke="#afc7a2" fill="#afc7a2" style="animation-play-state:paused" ></path>
<path d="M1876 72L1875 -93L1719 -85z" stroke="#afc7a2" fill="#afc7a2" style="animation-play-state:paused" ></path>
<path d="M2100 952L2050 738L1935 951z" stroke="#aac5a0" fill="#aac5a0" style="animation-play-state:paused" ></path>
<path d="M1935 951L2050 738L1851 703z" stroke="#a5c29e" fill="#a5c29e" style="animation-play-state:paused" ></path>
<path d="M1953 477L2092 452L1950 310z" stroke="#92b898" fill="#92b898" style="animation-play-state:paused" ></path>
<path d="M1950 310L2109 141L1876 72z" stroke="#a3c19d" fill="#a3c19d" style="animation-play-state:paused" ></path>
<path d="M-218 1094L-66 1246L-96 1052z" stroke="#a6c39e" fill="#a6c39e" style="animation-play-state:paused" ></path>
<path d="M2050 738L2082 606L1946 634z" stroke="#9cbd9b" fill="#9cbd9b" style="animation-play-state:paused" ></path>
<path d="M2082 606L2092 452L1953 477z" stroke="#92b898" fill="#92b898" style="animation-play-state:paused" ></path>
<path d="M2092 452L2091 287L1950 310z" stroke="#97ba99" fill="#97ba99" style="animation-play-state:paused" ></path>
<path d="M-83 -83L-265 63L-25 139z" stroke="#b0c8a2" fill="#b0c8a2" style="animation-play-state:paused" ></path>
<path d="M-342 806L-182 966L-215 769z" stroke="#9abc9a" fill="#9abc9a" style="animation-play-state:paused" ></path>
<path d="M-392 920L-218 1094L-182 966z" stroke="#a0c09c" fill="#a0c09c" style="animation-play-state:paused" ></path>
<path d="M-182 966L-218 1094L-96 1052z" stroke="#a3c19d" fill="#a3c19d" style="animation-play-state:paused" ></path>
<path d="M-217 603L-202 454L-384 600z" stroke="#93b898" fill="#93b898" style="animation-play-state:paused" ></path>
<path d="M-384 600L-202 454L-420 400z" stroke="#98bb99" fill="#98bb99" style="animation-play-state:paused" ></path>
<path d="M2057 -75L1890 -242L1875 -93z" stroke="#b5cba5" fill="#b5cba5" style="animation-play-state:paused" ></path>
<path d="M1875 -93L1890 -242L1719 -85z" stroke="#b5cba5" fill="#b5cba5" style="animation-play-state:paused" ></path>
<path d="M-377 279L-202 454L-247 245z" stroke="#a1c09c" fill="#a1c09c" style="animation-play-state:paused" ></path>
<path d="M137 -191L-111 -275L76 -88z" stroke="#bcd0aa" fill="#bcd0aa" style="animation-play-state:paused" ></path>
<path d="M-83 -83L-271 -107L-265 63z" stroke="#b4caa4" fill="#b4caa4" style="animation-play-state:paused" ></path>
<path d="M422 -234L-111 -275L283 -209z" stroke="#bed1ad" fill="#bed1ad" style="animation-play-state:paused" ></path>
<path d="M575 -245L-111 -275L422 -234z" stroke="#bfd2ad" fill="#bfd2ad" style="animation-play-state:paused" ></path>
<path d="M1359 -281L-111 -275L891 -257z" stroke="#bfd2ad" fill="#bfd2ad" style="animation-play-state:paused" ></path>
<path d="M2231 263L2109 141L2091 287z" stroke="#9fbf9c" fill="#9fbf9c" style="animation-play-state:paused" ></path>
<path d="M2091 287L2109 141L1950 310z" stroke="#9ebe9b" fill="#9ebe9b" style="animation-play-state:paused" ></path>
<path d="M-437 55L-377 279L-265 63z" stroke="#acc6a0" fill="#acc6a0" style="animation-play-state:paused" ></path>
<path d="M-265 63L-377 279L-247 245z" stroke="#a8c49f" fill="#a8c49f" style="animation-play-state:paused" ></path>
<path d="M2050 738L2193 717L2082 606z" stroke="#9ebe9c" fill="#9ebe9c" style="animation-play-state:paused" ></path>
<path d="M2251 611L2230 426L2092 452z" stroke="#91b798" fill="#91b798" style="animation-play-state:paused" ></path>
<path d="M2092 452L2230 426L2091 287z" stroke="#94b998" fill="#94b998" style="animation-play-state:paused" ></path>
<path d="M2084 1100L2100 952L1935 951z" stroke="#b1c8a3" fill="#b1c8a3" style="animation-play-state:paused" ></path>
<path d="M2084 1100L1935 951L1879 1059z" stroke="#b3c9a3" fill="#b3c9a3" style="animation-play-state:paused" ></path>
<path d="M1936 1280L1761 1105L1701 1209z" stroke="#bbcfaa" fill="#bbcfaa" style="animation-play-state:paused" ></path>
<path d="M2117 1297L1936 1280L1608 1280z" stroke="#c0d2ae" fill="#c0d2ae" style="animation-play-state:paused" ></path>
<path d="M1608 1280L1936 1280L1701 1209z" stroke="#bdd1ac" fill="#bdd1ac" style="animation-play-state:paused" ></path>
<path d="M-377 279L-420 400L-202 454z" stroke="#9ebe9b" fill="#9ebe9b" style="animation-play-state:paused" ></path>
<path d="M-111 -275L-271 -107L-83 -83z" stroke="#bbcfa9" fill="#bbcfa9" style="animation-play-state:paused" ></path>
<path d="M-377 279L-437 55L-420 400z" stroke="#a6c39e" fill="#a6c39e" style="animation-play-state:paused" ></path>
<path d="M2109 141L2057 -75L1876 72z" stroke="#aac5a0" fill="#aac5a0" style="animation-play-state:paused" ></path>
<path d="M2200 888L2193 717L2050 738z" stroke="#a4c29e" fill="#a4c29e" style="animation-play-state:paused" ></path>
<path d="M-445 1195L-222 1254L-218 1094z" stroke="#a5c29e" fill="#a5c29e" style="animation-play-state:paused" ></path>
<path d="M-218 1094L-222 1254L-66 1246z" stroke="#a7c39e" fill="#a7c39e" style="animation-play-state:paused" ></path>
<path d="M-66 1246L-222 1254L124 1272z" stroke="#a9c49f" fill="#a9c49f" style="animation-play-state:paused" ></path>
<path d="M-271 -107L-341 -13L-265 63z" stroke="#b3caa4" fill="#b3caa4" style="animation-play-state:paused" ></path>
<path d="M1936 1280L2084 1100L1879 1059z" stroke="#b9cea8" fill="#b9cea8" style="animation-play-state:paused" ></path>
<path d="M2100 952L2200 888L2050 738z" stroke="#a9c49f" fill="#a9c49f" style="animation-play-state:paused" ></path>
<path d="M-384 600L-392 920L-342 806z" stroke="#96ba99" fill="#96ba99" style="animation-play-state:paused" ></path>
<path d="M-342 806L-392 920L-182 966z" stroke="#9cbd9b" fill="#9cbd9b" style="animation-play-state:paused" ></path>
<path d="M-420 400L-392 920L-384 600z" stroke="#90b697" fill="#90b697" style="animation-play-state:paused" ></path>
<path d="M2251 611L2092 452L2082 606z" stroke="#95ba99" fill="#95ba99" style="animation-play-state:paused" ></path>
<path d="M2109 141L2191 59L2057 -75z" stroke="#aac5a0" fill="#aac5a0" style="animation-play-state:paused" ></path>
<path d="M2255 1107L2200 888L2100 952z" stroke="#b0c8a2" fill="#b0c8a2" style="animation-play-state:paused" ></path>
<path d="M2193 717L2251 611L2082 606z" stroke="#9bbd9b" fill="#9bbd9b" style="animation-play-state:paused" ></path>
<path d="M2200 888L2251 611L2193 717z" stroke="#a2c09d" fill="#a2c09d" style="animation-play-state:paused" ></path>
<path d="M2251 611L2231 263L2230 426z" stroke="#91b798" fill="#91b798" style="animation-play-state:paused" ></path>
<path d="M2230 426L2231 263L2091 287z" stroke="#98bb9a" fill="#98bb9a" style="animation-play-state:paused" ></path>
<path d="M2231 263L2191 59L2109 141z" stroke="#a4c19d" fill="#a4c19d" style="animation-play-state:paused" ></path>
<path d="M-111 -275L-263 -263L-271 -107z" stroke="#bed1ad" fill="#bed1ad" style="animation-play-state:paused" ></path>
<path d="M-271 -107L-371 -207L-341 -13z" stroke="#b9cda8" fill="#b9cda8" style="animation-play-state:paused" ></path>
<path d="M-341 -13L-437 55L-265 63z" stroke="#b1c8a3" fill="#b1c8a3" style="animation-play-state:paused" ></path>
<path d="M-371 -207L-437 55L-341 -13z" stroke="#b6cba6" fill="#b6cba6" style="animation-play-state:paused" ></path>
<path d="M2217 -79L2073 -223L2057 -75z" stroke="#b4caa4" fill="#b4caa4" style="animation-play-state:paused" ></path>
<path d="M2057 -75L2073 -223L1890 -242z" stroke="#b7cca7" fill="#b7cca7" style="animation-play-state:paused" ></path>
<path d="M1890 -242L2218 -242L1701 -267z" stroke="#bcd0aa" fill="#bcd0aa" style="animation-play-state:paused" ></path>
<path d="M-392 920L-406 1070L-218 1094z" stroke="#a1c09c" fill="#a1c09c" style="animation-play-state:paused" ></path>
<path d="M-445 1195L-406 1070L-392 920z" stroke="#a1c09c" fill="#a1c09c" style="animation-play-state:paused" ></path>
<path d="M-445 1195L-392 920L-420 400z" stroke="#98bb9a" fill="#98bb9a" style="animation-play-state:paused" ></path>
<path d="M-263 -263L-371 -207L-271 -107z" stroke="#bdd1ac" fill="#bdd1ac" style="animation-play-state:paused" ></path>
<path d="M1936 1280L2117 1297L2084 1100z" stroke="#bed1ac" fill="#bed1ac" style="animation-play-state:paused" ></path>
<path d="M2084 1100L2255 1107L2100 952z" stroke="#b4caa4" fill="#b4caa4" style="animation-play-state:paused" ></path>
<path d="M629 1285L2117 1297L1608 1280z" stroke="#bbcfa9" fill="#bbcfa9" style="animation-play-state:paused" ></path>
<path d="M2191 59L2217 -79L2057 -75z" stroke="#aec7a2" fill="#aec7a2" style="animation-play-state:paused" ></path>
<path d="M2231 263L2217 -79L2191 59z" stroke="#a8c49f" fill="#a8c49f" style="animation-play-state:paused" ></path>
<path d="M2218 -242L2217 -79L2231 263z" stroke="#aec7a1" fill="#aec7a1" style="animation-play-state:paused" ></path>
<path d="M-437 55L-445 1195L-420 400z" stroke="#95b999" fill="#95b999" style="animation-play-state:paused" ></path>
<path d="M-406 1070L-445 1195L-218 1094z" stroke="#a3c19d" fill="#a3c19d" style="animation-play-state:paused" ></path>
<path d="M2240 1256L2255 1107L2084 1100z" stroke="#bacfa9" fill="#bacfa9" style="animation-play-state:paused" ></path>
<path d="M2200 888L2255 1107L2251 611z" stroke="#aac5a0" fill="#aac5a0" style="animation-play-state:paused" ></path>
<path d="M2251 611L2218 -242L2231 263z" stroke="#a0bf9c" fill="#a0bf9c" style="animation-play-state:paused" ></path>
<path d="M2217 -79L2218 -242L2073 -223z" stroke="#b7cca7" fill="#b7cca7" style="animation-play-state:paused" ></path>
<path d="M2073 -223L2218 -242L1890 -242z" stroke="#bbcfaa" fill="#bbcfaa" style="animation-play-state:paused" ></path>
<path d="M2117 1297L2240 1256L2084 1100z" stroke="#bed1ac" fill="#bed1ac" style="animation-play-state:paused" ></path></g>
<style type="text/css" style="animation-play-state:paused" >#bk-0.7731062487867146 path { stroke-width: 1 }</style></g></svg>