<?xml version="1.0" encoding="utf-8"?><svg xmlns="http://www.w3.org/2000/svg" xmlns:xlink="http://www.w3.org/1999/xlink" width="3000" height="2000" preserveAspectRatio="xMidYMid" viewBox="0 0 3000 2000" style="z-index:1;display:block;background-color:rgb(241, 242, 243);animation-play-state:paused" ><g transform="" style="animation-play-state:paused" ><g id="bk-0.5573093245464312" style="animation-play-state:paused" ><path d="M1421 1095L1680 1111L1695 868z" stroke="#77a991" fill="#77a991" style="animation-play-state:paused" ></path>
<path d="M1695 868L1373 838L1421 1095z" stroke="#7ead93" fill="#7ead93" style="animation-play-state:paused" ></path>
<path d="M1373 838L1224 905L1421 1095z" stroke="#7dad93" fill="#7dad93" style="animation-play-state:paused" ></path>
<path d="M1695 868L1710 613L1373 838z" stroke="#89b395" fill="#89b395" style="animation-play-state:paused" ></path>
<path d="M1373 838L1160 583L1224 905z" stroke="#89b396" fill="#89b396" style="animation-play-state:paused" ></path>
<path d="M1710 613L1421 611L1373 838z" stroke="#8fb697" fill="#8fb697" style="animation-play-state:paused" ></path>
<path d="M1224 905L1134 1096L1421 1095z" stroke="#77a991" fill="#77a991" style="animation-play-state:paused" ></path>
<path d="M1952 1136L1949 886L1695 868z" stroke="#7cac92" fill="#7cac92" style="animation-play-state:paused" ></path>
<path d="M1695 868L1949 886L1710 613z" stroke="#87b295" fill="#87b295" style="animation-play-state:paused" ></path>
<path d="M1168 1361L1437 1399L1421 1095z" stroke="#659b89" fill="#659b89" style="animation-play-state:paused" ></path>
<path d="M1421 1095L1437 1399L1680 1111z" stroke="#6b9f8b" fill="#6b9f8b" style="animation-play-state:paused" ></path>
<path d="M1680 1111L1952 1136L1695 868z" stroke="#76a890" fill="#76a890" style="animation-play-state:paused" ></path>
<path d="M1711 1415L1952 1136L1680 1111z" stroke="#699e8b" fill="#699e8b" style="animation-play-state:paused" ></path>
<path d="M1437 1399L1711 1415L1680 1111z" stroke="#639988" fill="#639988" style="animation-play-state:paused" ></path>
<path d="M1949 886L1894 555L1710 613z" stroke="#8eb697" fill="#8eb697" style="animation-play-state:paused" ></path>
<path d="M1710 613L1660 315L1421 611z" stroke="#9abc9b" fill="#9abc9b" style="animation-play-state:paused" ></path>
<path d="M1134 1096L1168 1361L1421 1095z" stroke="#6ca18c" fill="#6ca18c" style="animation-play-state:paused" ></path>
<path d="M1398 308L1160 583L1421 611z" stroke="#9bbd9b" fill="#9bbd9b" style="animation-play-state:paused" ></path>
<path d="M1421 611L1160 583L1373 838z" stroke="#8fb697" fill="#8fb697" style="animation-play-state:paused" ></path>
<path d="M1224 905L971 897L1134 1096z" stroke="#7cac92" fill="#7cac92" style="animation-play-state:paused" ></path>
<path d="M1711 1415L1956 1388L1952 1136z" stroke="#629988" fill="#629988" style="animation-play-state:paused" ></path>
<path d="M1160 583L971 897L1224 905z" stroke="#88b295" fill="#88b295" style="animation-play-state:paused" ></path>
<path d="M1134 1096L948 1418L1168 1361z" stroke="#659b89" fill="#659b89" style="animation-play-state:paused" ></path>
<path d="M1437 1399L1654 1609L1711 1415z" stroke="#579083" fill="#579083" style="animation-play-state:paused" ></path>
<path d="M1711 1415L1945 1633L1956 1388z" stroke="#579082" fill="#579082" style="animation-play-state:paused" ></path>
<path d="M1435 1657L1654 1609L1437 1399z" stroke="#528c80" fill="#528c80" style="animation-play-state:paused" ></path>
<path d="M1952 1136L2165 828L1949 886z" stroke="#7cac93" fill="#7cac93" style="animation-play-state:paused" ></path>
<path d="M1949 886L2192 631L1894 555z" stroke="#8eb697" fill="#8eb697" style="animation-play-state:paused" ></path>
<path d="M2237 1164L2165 828L1952 1136z" stroke="#76a890" fill="#76a890" style="animation-play-state:paused" ></path>
<path d="M1913 348L1660 315L1894 555z" stroke="#a2c09d" fill="#a2c09d" style="animation-play-state:paused" ></path>
<path d="M1894 555L1660 315L1710 613z" stroke="#9cbd9b" fill="#9cbd9b" style="animation-play-state:paused" ></path>
<path d="M971 897L897 1088L1134 1096z" stroke="#78a991" fill="#78a991" style="animation-play-state:paused" ></path>
<path d="M1158 1627L1435 1657L1437 1399z" stroke="#528c80" fill="#528c80" style="animation-play-state:paused" ></path>
<path d="M1660 315L1398 308L1421 611z" stroke="#a2c09d" fill="#a2c09d" style="animation-play-state:paused" ></path>
<path d="M2179 1358L2237 1164L1952 1136z" stroke="#699e8a" fill="#699e8a" style="animation-play-state:paused" ></path>
<path d="M897 1088L948 1418L1134 1096z" stroke="#6ba08c" fill="#6ba08c" style="animation-play-state:paused" ></path>
<path d="M1168 1361L1158 1627L1437 1399z" stroke="#599183" fill="#599183" style="animation-play-state:paused" ></path>
<path d="M1956 1388L2179 1358L1952 1136z" stroke="#639a88" fill="#639a88" style="animation-play-state:paused" ></path>
<path d="M2203 1631L2179 1358L1956 1388z" stroke="#589183" fill="#589183" style="animation-play-state:paused" ></path>
<path d="M2207 367L1913 348L1894 555z" stroke="#a0bf9c" fill="#a0bf9c" style="animation-play-state:paused" ></path>
<path d="M948 1418L1158 1627L1168 1361z" stroke="#589183" fill="#589183" style="animation-play-state:paused" ></path>
<path d="M2482 622L2192 631L2165 828z" stroke="#8eb697" fill="#8eb697" style="animation-play-state:paused" ></path>
<path d="M2165 828L2192 631L1949 886z" stroke="#88b295" fill="#88b295" style="animation-play-state:paused" ></path>
<path d="M1704 1925L1945 1633L1654 1609z" stroke="#47827b" fill="#47827b" style="animation-play-state:paused" ></path>
<path d="M1654 1609L1945 1633L1711 1415z" stroke="#528c80" fill="#528c80" style="animation-play-state:paused" ></path>
<path d="M1398 308L1144 328L1160 583z" stroke="#a2c09d" fill="#a2c09d" style="animation-play-state:paused" ></path>
<path d="M1160 583L879 579L971 897z" stroke="#8fb697" fill="#8fb697" style="animation-play-state:paused" ></path>
<path d="M971 897L682 896L897 1088z" stroke="#7dad93" fill="#7dad93" style="animation-play-state:paused" ></path>
<path d="M1144 328L879 579L1160 583z" stroke="#9cbd9b" fill="#9cbd9b" style="animation-play-state:paused" ></path>
<path d="M879 579L682 896L971 897z" stroke="#88b395" fill="#88b395" style="animation-play-state:paused" ></path>
<path d="M631 1364L878 1604L948 1418z" stroke="#599284" fill="#599284" style="animation-play-state:paused" ></path>
<path d="M1913 348L1668 74L1660 315z" stroke="#adc5a1" fill="#adc5a1" style="animation-play-state:paused" ></path>
<path d="M1660 315L1414 89L1398 308z" stroke="#aec6a1" fill="#aec6a1" style="animation-play-state:paused" ></path>
<path d="M1398 308L1177 128L1144 328z" stroke="#adc5a1" fill="#adc5a1" style="animation-play-state:paused" ></path>
<path d="M1668 74L1414 89L1660 315z" stroke="#b3c9a5" fill="#b3c9a5" style="animation-play-state:paused" ></path>
<path d="M2192 631L2207 367L1894 555z" stroke="#9abc9a" fill="#9abc9a" style="animation-play-state:paused" ></path>
<path d="M1913 348L1904 67L1668 74z" stroke="#b3c9a4" fill="#b3c9a4" style="animation-play-state:paused" ></path>
<path d="M2482 622L2207 367L2192 631z" stroke="#98bb9a" fill="#98bb9a" style="animation-play-state:paused" ></path>
<path d="M631 1364L948 1418L897 1088z" stroke="#659b89" fill="#659b89" style="animation-play-state:paused" ></path>
<path d="M948 1418L878 1604L1158 1627z" stroke="#538d81" fill="#538d81" style="animation-play-state:paused" ></path>
<path d="M682 896L630 1097L897 1088z" stroke="#78aa91" fill="#78aa91" style="animation-play-state:paused" ></path>
<path d="M2192 1874L2203 1631L1945 1633z" stroke="#47827b" fill="#47827b" style="animation-play-state:paused" ></path>
<path d="M1945 1633L2203 1631L1956 1388z" stroke="#528b80" fill="#528b80" style="animation-play-state:paused" ></path>
<path d="M2179 1358L2402 1328L2237 1164z" stroke="#649a88" fill="#649a88" style="animation-play-state:paused" ></path>
<path d="M1176 1889L1451 1910L1435 1657z" stroke="#417e79" fill="#417e79" style="animation-play-state:paused" ></path>
<path d="M1435 1657L1451 1910L1654 1609z" stroke="#47827b" fill="#47827b" style="animation-play-state:paused" ></path>
<path d="M1176 1889L1435 1657L1158 1627z" stroke="#47837b" fill="#47837b" style="animation-play-state:paused" ></path>
<path d="M1414 89L1177 128L1398 308z" stroke="#b2c9a4" fill="#b2c9a4" style="animation-play-state:paused" ></path>
<path d="M1144 328L880 307L879 579z" stroke="#a2c09d" fill="#a2c09d" style="animation-play-state:paused" ></path>
<path d="M2435 1630L2402 1328L2179 1358z" stroke="#599183" fill="#599183" style="animation-play-state:paused" ></path>
<path d="M2237 1164L2479 878L2165 828z" stroke="#7cac92" fill="#7cac92" style="animation-play-state:paused" ></path>
<path d="M2501 1147L2479 878L2237 1164z" stroke="#74a68f" fill="#74a68f" style="animation-play-state:paused" ></path>
<path d="M900 89L880 307L1144 328z" stroke="#aec6a1" fill="#aec6a1" style="animation-play-state:paused" ></path>
<path d="M879 579L658 600L682 896z" stroke="#8fb697" fill="#8fb697" style="animation-play-state:paused" ></path>
<path d="M1451 1910L1704 1925L1654 1609z" stroke="#417d79" fill="#417d79" style="animation-play-state:paused" ></path>
<path d="M2402 1328L2501 1147L2237 1164z" stroke="#699e8b" fill="#699e8b" style="animation-play-state:paused" ></path>
<path d="M648 322L658 600L879 579z" stroke="#9cbd9b" fill="#9cbd9b" style="animation-play-state:paused" ></path>
<path d="M682 896L441 890L630 1097z" stroke="#7dad93" fill="#7dad93" style="animation-play-state:paused" ></path>
<path d="M630 1097L631 1364L897 1088z" stroke="#6da18c" fill="#6da18c" style="animation-play-state:paused" ></path>
<path d="M2179 84L1904 67L1913 348z" stroke="#b2c9a4" fill="#b2c9a4" style="animation-play-state:paused" ></path>
<path d="M1668 74L1491 -116L1414 89z" stroke="#bed1ad" fill="#bed1ad" style="animation-play-state:paused" ></path>
<path d="M2694 602L2482 622L2479 878z" stroke="#8db597" fill="#8db597" style="animation-play-state:paused" ></path>
<path d="M2479 878L2482 622L2165 828z" stroke="#88b395" fill="#88b395" style="animation-play-state:paused" ></path>
<path d="M894 1864L1176 1889L1158 1627z" stroke="#447f79" fill="#447f79" style="animation-play-state:paused" ></path>
<path d="M1451 1910L1473 2203L1704 1925z" stroke="#347375" fill="#347375" style="animation-play-state:paused" ></path>
<path d="M1733 2206L1991 1947L1704 1925z" stroke="#337175" fill="#337175" style="animation-play-state:paused" ></path>
<path d="M1704 1925L1991 1947L1945 1633z" stroke="#3f7c78" fill="#3f7c78" style="animation-play-state:paused" ></path>
<path d="M2203 1631L2435 1630L2179 1358z" stroke="#528c80" fill="#528c80" style="animation-play-state:paused" ></path>
<path d="M1674 -148L1491 -116L1668 74z" stroke="#c3d5b1" fill="#c3d5b1" style="animation-play-state:paused" ></path>
<path d="M1414 89L1218 -96L1177 128z" stroke="#bcd0ac" fill="#bcd0ac" style="animation-play-state:paused" ></path>
<path d="M1177 128L900 89L1144 328z" stroke="#b2c8a4" fill="#b2c8a4" style="animation-play-state:paused" ></path>
<path d="M631 1364L693 1643L878 1604z" stroke="#548e81" fill="#548e81" style="animation-play-state:paused" ></path>
<path d="M878 1604L894 1864L1158 1627z" stroke="#4a857c" fill="#4a857c" style="animation-play-state:paused" ></path>
<path d="M2461 346L2179 84L2207 367z" stroke="#abc5a0" fill="#abc5a0" style="animation-play-state:paused" ></path>
<path d="M2207 367L2179 84L1913 348z" stroke="#abc5a0" fill="#abc5a0" style="animation-play-state:paused" ></path>
<path d="M1904 67L1674 -148L1668 74z" stroke="#bfd2ae" fill="#bfd2ae" style="animation-play-state:paused" ></path>
<path d="M1991 1947L2192 1874L1945 1633z" stroke="#407d78" fill="#407d78" style="animation-play-state:paused" ></path>
<path d="M2755 1416L2743 1141L2501 1147z" stroke="#679d8a" fill="#679d8a" style="animation-play-state:paused" ></path>
<path d="M693 1643L894 1864L878 1604z" stroke="#4a857c" fill="#4a857c" style="animation-play-state:paused" ></path>
<path d="M2441 1865L2435 1630L2203 1631z" stroke="#47827b" fill="#47827b" style="animation-play-state:paused" ></path>
<path d="M2482 622L2461 346L2207 367z" stroke="#9fbe9c" fill="#9fbe9c" style="animation-play-state:paused" ></path>
<path d="M953 -138L900 89L1177 128z" stroke="#bdd1ac" fill="#bdd1ac" style="animation-play-state:paused" ></path>
<path d="M880 307L648 322L879 579z" stroke="#a3c09d" fill="#a3c09d" style="animation-play-state:paused" ></path>
<path d="M718 149L648 322L880 307z" stroke="#adc5a1" fill="#adc5a1" style="animation-play-state:paused" ></path>
<path d="M658 600L441 890L682 896z" stroke="#88b395" fill="#88b395" style="animation-play-state:paused" ></path>
<path d="M630 1097L416 1143L631 1364z" stroke="#6ca08c" fill="#6ca08c" style="animation-play-state:paused" ></path>
<path d="M362 577L441 890L658 600z" stroke="#8fb697" fill="#8fb697" style="animation-play-state:paused" ></path>
<path d="M631 1364L436 1401L693 1643z" stroke="#599284" fill="#599284" style="animation-play-state:paused" ></path>
<path d="M441 890L416 1143L630 1097z" stroke="#77a991" fill="#77a991" style="animation-play-state:paused" ></path>
<path d="M1491 -116L1218 -96L1414 89z" stroke="#c2d4b0" fill="#c2d4b0" style="animation-play-state:paused" ></path>
<path d="M1915 -185L1674 -148L1904 67z" stroke="#c5d7b3" fill="#c5d7b3" style="animation-play-state:paused" ></path>
<path d="M1491 -116L1421 -429L1218 -96z" stroke="#cedeba" fill="#cedeba" style="animation-play-state:paused" ></path>
<path d="M900 89L718 149L880 307z" stroke="#b2c9a4" fill="#b2c9a4" style="animation-play-state:paused" ></path>
<path d="M628 -169L718 149L900 89z" stroke="#bed1ad" fill="#bed1ad" style="animation-play-state:paused" ></path>
<path d="M416 1143L436 1401L631 1364z" stroke="#659b89" fill="#659b89" style="animation-play-state:paused" ></path>
<path d="M969 2176L1176 1889L894 1864z" stroke="#387676" fill="#387676" style="animation-play-state:paused" ></path>
<path d="M2755 1416L2501 1147L2402 1328z" stroke="#639988" fill="#639988" style="animation-play-state:paused" ></path>
<path d="M2501 1147L2743 1141L2479 878z" stroke="#74a790" fill="#74a790" style="animation-play-state:paused" ></path>
<path d="M2482 622L2694 602L2461 346z" stroke="#99bc9a" fill="#99bc9a" style="animation-play-state:paused" ></path>
<path d="M2743 1141L2746 885L2479 878z" stroke="#7bab92" fill="#7bab92" style="animation-play-state:paused" ></path>
<path d="M1172 2172L1451 1910L1176 1889z" stroke="#367476" fill="#367476" style="animation-play-state:paused" ></path>
<path d="M1172 2172L1473 2203L1451 1910z" stroke="#306f74" fill="#306f74" style="animation-play-state:paused" ></path>
<path d="M1991 1947L2202 2150L2192 1874z" stroke="#347375" fill="#347375" style="animation-play-state:paused" ></path>
<path d="M2746 885L2694 602L2479 878z" stroke="#87b295" fill="#87b295" style="animation-play-state:paused" ></path>
<path d="M2220 -118L1915 -185L1904 67z" stroke="#c4d6b2" fill="#c4d6b2" style="animation-play-state:paused" ></path>
<path d="M1182 -411L953 -138L1218 -96z" stroke="#cedebb" fill="#cedebb" style="animation-play-state:paused" ></path>
<path d="M2220 -118L1904 67L2179 84z" stroke="#bed1ad" fill="#bed1ad" style="animation-play-state:paused" ></path>
<path d="M2412 47L2179 84L2461 346z" stroke="#b3c9a4" fill="#b3c9a4" style="animation-play-state:paused" ></path>
<path d="M670 1904L894 1864L693 1643z" stroke="#448079" fill="#448079" style="animation-play-state:paused" ></path>
<path d="M969 2176L1172 2172L1176 1889z" stroke="#327075" fill="#327075" style="animation-play-state:paused" ></path>
<path d="M1473 2203L1733 2206L1704 1925z" stroke="#2e6d74" fill="#2e6d74" style="animation-play-state:paused" ></path>
<path d="M648 322L362 577L658 600z" stroke="#9cbd9b" fill="#9cbd9b" style="animation-play-state:paused" ></path>
<path d="M441 890L151 1112L416 1143z" stroke="#77a991" fill="#77a991" style="animation-play-state:paused" ></path>
<path d="M178 1404L350 1579L436 1401z" stroke="#5a9384" fill="#5a9384" style="animation-play-state:paused" ></path>
<path d="M375 313L362 577L648 322z" stroke="#a3c09d" fill="#a3c09d" style="animation-play-state:paused" ></path>
<path d="M2192 1874L2441 1865L2203 1631z" stroke="#427e79" fill="#427e79" style="animation-play-state:paused" ></path>
<path d="M2435 1630L2755 1416L2402 1328z" stroke="#589083" fill="#589083" style="animation-play-state:paused" ></path>
<path d="M2443 2132L2441 1865L2192 1874z" stroke="#367476" fill="#367476" style="animation-play-state:paused" ></path>
<path d="M2718 120L2412 47L2461 346z" stroke="#b2c8a4" fill="#b2c8a4" style="animation-play-state:paused" ></path>
<path d="M1421 -429L1491 -116L1674 -148z" stroke="#cfdfbb" fill="#cfdfbb" style="animation-play-state:paused" ></path>
<path d="M1218 -96L953 -138L1177 128z" stroke="#c1d4b0" fill="#c1d4b0" style="animation-play-state:paused" ></path>
<path d="M400 80L375 313L648 322z" stroke="#aec6a1" fill="#aec6a1" style="animation-play-state:paused" ></path>
<path d="M399 1884L670 1904L693 1643z" stroke="#448079" fill="#448079" style="animation-play-state:paused" ></path>
<path d="M2731 1672L2755 1416L2435 1630z" stroke="#508a7f" fill="#508a7f" style="animation-play-state:paused" ></path>
<path d="M2743 1141L2992 881L2746 885z" stroke="#7bab92" fill="#7bab92" style="animation-play-state:paused" ></path>
<path d="M1733 2206L1984 2192L1991 1947z" stroke="#2e6c73" fill="#2e6c73" style="animation-play-state:paused" ></path>
<path d="M2412 47L2220 -118L2179 84z" stroke="#bed1ad" fill="#bed1ad" style="animation-play-state:paused" ></path>
<path d="M178 1404L436 1401L416 1143z" stroke="#649a88" fill="#649a88" style="animation-play-state:paused" ></path>
<path d="M436 1401L350 1579L693 1643z" stroke="#558e81" fill="#558e81" style="animation-play-state:paused" ></path>
<path d="M2943 594L2740 412L2694 602z" stroke="#98bb9a" fill="#98bb9a" style="animation-play-state:paused" ></path>
<path d="M2694 602L2740 412L2461 346z" stroke="#9ebe9c" fill="#9ebe9c" style="animation-play-state:paused" ></path>
<path d="M2412 47L2424 -197L2220 -118z" stroke="#c5d7b3" fill="#c5d7b3" style="animation-play-state:paused" ></path>
<path d="M2943 594L2694 602L2746 885z" stroke="#8db597" fill="#8db597" style="animation-play-state:paused" ></path>
<path d="M653 2162L969 2176L894 1864z" stroke="#337275" fill="#337275" style="animation-play-state:paused" ></path>
<path d="M1172 2172L1402 2374L1473 2203z" stroke="#296771" fill="#296771" style="animation-play-state:paused" ></path>
<path d="M1473 2203L1707 2418L1733 2206z" stroke="#276570" fill="#276570" style="animation-play-state:paused" ></path>
<path d="M1984 2192L2202 2150L1991 1947z" stroke="#2e6d74" fill="#2e6d74" style="animation-play-state:paused" ></path>
<path d="M400 80L648 322L718 149z" stroke="#b2c9a4" fill="#b2c9a4" style="animation-play-state:paused" ></path>
<path d="M362 577L212 657L441 890z" stroke="#8eb697" fill="#8eb697" style="animation-play-state:paused" ></path>
<path d="M114 320L212 657L362 577z" stroke="#9bbd9b" fill="#9bbd9b" style="animation-play-state:paused" ></path>
<path d="M2698 1881L2731 1672L2435 1630z" stroke="#45817a" fill="#45817a" style="animation-play-state:paused" ></path>
<path d="M2698 1881L2435 1630L2441 1865z" stroke="#417e79" fill="#417e79" style="animation-play-state:paused" ></path>
<path d="M1959 -400L1692 -399L1915 -185z" stroke="#d6e4c1" fill="#d6e4c1" style="animation-play-state:paused" ></path>
<path d="M1915 -185L1692 -399L1674 -148z" stroke="#d0dfbc" fill="#d0dfbc" style="animation-play-state:paused" ></path>
<path d="M212 657L163 882L441 890z" stroke="#87b295" fill="#87b295" style="animation-play-state:paused" ></path>
<path d="M163 882L151 1112L441 890z" stroke="#7dad93" fill="#7dad93" style="animation-play-state:paused" ></path>
<path d="M1692 -399L1421 -429L1674 -148z" stroke="#d6e4c1" fill="#d6e4c1" style="animation-play-state:paused" ></path>
<path d="M1204 2434L1402 2374L1172 2172z" stroke="#276470" fill="#276470" style="animation-play-state:paused" ></path>
<path d="M1733 2206L1906 2389L1984 2192z" stroke="#276570" fill="#276570" style="animation-play-state:paused" ></path>
<path d="M1984 2192L2208 2411L2202 2150z" stroke="#276470" fill="#276470" style="animation-play-state:paused" ></path>
<path d="M151 1112L178 1404L416 1143z" stroke="#6ba08b" fill="#6ba08b" style="animation-play-state:paused" ></path>
<path d="M350 1579L399 1884L693 1643z" stroke="#4a857d" fill="#4a857d" style="animation-play-state:paused" ></path>
<path d="M1421 -429L1182 -411L1218 -96z" stroke="#d5e3c0" fill="#d5e3c0" style="animation-play-state:paused" ></path>
<path d="M628 -169L400 80L718 149z" stroke="#bed1ad" fill="#bed1ad" style="animation-play-state:paused" ></path>
<path d="M2220 -118L1959 -400L1915 -185z" stroke="#cfdfbb" fill="#cfdfbb" style="animation-play-state:paused" ></path>
<path d="M1692 -399L1959 -400L1421 -429z" stroke="#dce8c6" fill="#dce8c6" style="animation-play-state:paused" ></path>
<path d="M2211 -428L1959 -400L2220 -118z" stroke="#d5e3c0" fill="#d5e3c0" style="animation-play-state:paused" ></path>
<path d="M2993 1160L2743 1141L2971 1400z" stroke="#679d8a" fill="#679d8a" style="animation-play-state:paused" ></path>
<path d="M2993 1160L2992 881L2743 1141z" stroke="#74a68f" fill="#74a68f" style="animation-play-state:paused" ></path>
<path d="M628 -169L900 89L953 -138z" stroke="#c4d6b2" fill="#c4d6b2" style="animation-play-state:paused" ></path>
<path d="M375 313L114 320L362 577z" stroke="#a3c19d" fill="#a3c19d" style="animation-play-state:paused" ></path>
<path d="M1402 2374L1707 2418L1473 2203z" stroke="#266370" fill="#266370" style="animation-play-state:paused" ></path>
<path d="M1707 2418L1906 2389L1733 2206z" stroke="#25616f" fill="#25616f" style="animation-play-state:paused" ></path>
<path d="M2412 2364L2443 2132L2202 2150z" stroke="#286671" fill="#286671" style="animation-play-state:paused" ></path>
<path d="M2202 2150L2443 2132L2192 1874z" stroke="#306f74" fill="#306f74" style="animation-play-state:paused" ></path>
<path d="M2443 2132L2698 1881L2441 1865z" stroke="#367476" fill="#367476" style="animation-play-state:paused" ></path>
<path d="M2971 1400L2743 1141L2755 1416z" stroke="#619887" fill="#619887" style="animation-play-state:paused" ></path>
<path d="M2992 881L2943 594L2746 885z" stroke="#87b295" fill="#87b295" style="animation-play-state:paused" ></path>
<path d="M146 1881L399 1884L350 1579z" stroke="#46827a" fill="#46827a" style="animation-play-state:paused" ></path>
<path d="M670 1904L653 2162L894 1864z" stroke="#387677" fill="#387677" style="animation-play-state:paused" ></path>
<path d="M2718 120L2461 346L2740 412z" stroke="#a9c4a0" fill="#a9c4a0" style="animation-play-state:paused" ></path>
<path d="M2697 -142L2424 -197L2412 47z" stroke="#c5d7b3" fill="#c5d7b3" style="animation-play-state:paused" ></path>
<path d="M2940 306L2718 120L2740 412z" stroke="#aac4a0" fill="#aac4a0" style="animation-play-state:paused" ></path>
<path d="M399 1884L653 2162L670 1904z" stroke="#397777" fill="#397777" style="animation-play-state:paused" ></path>
<path d="M969 2176L1204 2434L1172 2172z" stroke="#296771" fill="#296771" style="animation-play-state:paused" ></path>
<path d="M2971 1400L2755 1416L2731 1672z" stroke="#558e81" fill="#558e81" style="animation-play-state:paused" ></path>
<path d="M888 -452L628 -169L953 -138z" stroke="#d1e0bd" fill="#d1e0bd" style="animation-play-state:paused" ></path>
<path d="M925 2426L1204 2434L969 2176z" stroke="#276470" fill="#276470" style="animation-play-state:paused" ></path>
<path d="M1402 2374L1204 2434L1707 2418z" stroke="#24606f" fill="#24606f" style="animation-play-state:paused" ></path>
<path d="M3009 1690L2971 1400L2731 1672z" stroke="#4f897f" fill="#4f897f" style="animation-play-state:paused" ></path>
<path d="M2995 123L2940 306L3177 328z" stroke="#acc5a0" fill="#acc5a0" style="animation-play-state:paused" ></path>
<path d="M2943 594L2940 306L2740 412z" stroke="#9fbf9c" fill="#9fbf9c" style="animation-play-state:paused" ></path>
<path d="M2424 -197L2211 -428L2220 -118z" stroke="#d0dfbc" fill="#d0dfbc" style="animation-play-state:paused" ></path>
<path d="M1959 -400L2211 -428L1421 -429z" stroke="#dce9c7" fill="#dce9c7" style="animation-play-state:paused" ></path>
<path d="M2514 -365L2211 -428L2424 -197z" stroke="#d6e4c1" fill="#d6e4c1" style="animation-play-state:paused" ></path>
<path d="M178 1404L125 1610L350 1579z" stroke="#568f82" fill="#568f82" style="animation-play-state:paused" ></path>
<path d="M399 1884L397 2142L653 2162z" stroke="#347375" fill="#347375" style="animation-play-state:paused" ></path>
<path d="M-99 1396L125 1610L178 1404z" stroke="#5a9284" fill="#5a9284" style="animation-play-state:paused" ></path>
<path d="M-99 1396L178 1404L151 1112z" stroke="#659b89" fill="#659b89" style="animation-play-state:paused" ></path>
<path d="M1421 -429L888 -452L1182 -411z" stroke="#deeac8" fill="#deeac8" style="animation-play-state:paused" ></path>
<path d="M1182 -411L888 -452L953 -138z" stroke="#d7e4c2" fill="#d7e4c2" style="animation-play-state:paused" ></path>
<path d="M3163 -462L888 -452L1421 -429z" stroke="#deeac9" fill="#deeac9" style="animation-play-state:paused" ></path>
<path d="M636 2372L925 2426L969 2176z" stroke="#286671" fill="#286671" style="animation-play-state:paused" ></path>
<path d="M628 -169L418 -132L400 80z" stroke="#c5d7b3" fill="#c5d7b3" style="animation-play-state:paused" ></path>
<path d="M127 95L114 320L375 313z" stroke="#aec6a1" fill="#aec6a1" style="animation-play-state:paused" ></path>
<path d="M403 -392L418 -132L628 -169z" stroke="#d0dfbc" fill="#d0dfbc" style="animation-play-state:paused" ></path>
<path d="M127 95L375 313L400 80z" stroke="#b4caa5" fill="#b4caa5" style="animation-play-state:paused" ></path>
<path d="M212 657L-117 879L163 882z" stroke="#88b395" fill="#88b395" style="animation-play-state:paused" ></path>
<path d="M163 882L-117 879L151 1112z" stroke="#7ead93" fill="#7ead93" style="animation-play-state:paused" ></path>
<path d="M1707 2418L2208 2411L1906 2389z" stroke="#225e6e" fill="#225e6e" style="animation-play-state:paused" ></path>
<path d="M1906 2389L2208 2411L1984 2192z" stroke="#24616f" fill="#24616f" style="animation-play-state:paused" ></path>
<path d="M2946 1871L2731 1672L2698 1881z" stroke="#407d78" fill="#407d78" style="animation-play-state:paused" ></path>
<path d="M1204 2434L2208 2411L1707 2418z" stroke="#235e6e" fill="#235e6e" style="animation-play-state:paused" ></path>
<path d="M2946 1871L3009 1690L2731 1672z" stroke="#44807a" fill="#44807a" style="animation-play-state:paused" ></path>
<path d="M2971 1400L3178 1343L2993 1160z" stroke="#629988" fill="#629988" style="animation-play-state:paused" ></path>
<path d="M2701 2143L2698 1881L2443 2132z" stroke="#306f74" fill="#306f74" style="animation-play-state:paused" ></path>
<path d="M2992 -117L2697 -142L2718 120z" stroke="#c1d4b0" fill="#c1d4b0" style="animation-play-state:paused" ></path>
<path d="M2718 120L2697 -142L2412 47z" stroke="#bed1ad" fill="#bed1ad" style="animation-play-state:paused" ></path>
<path d="M2208 2411L2412 2364L2202 2150z" stroke="#24616f" fill="#24616f" style="animation-play-state:paused" ></path>
<path d="M128 2132L397 2142L399 1884z" stroke="#357476" fill="#357476" style="animation-play-state:paused" ></path>
<path d="M653 2162L636 2372L969 2176z" stroke="#2b6a72" fill="#2b6a72" style="animation-play-state:paused" ></path>
<path d="M2696 2390L2701 2143L2443 2132z" stroke="#276571" fill="#276571" style="animation-play-state:paused" ></path>
<path d="M2697 -142L2514 -365L2424 -197z" stroke="#cfdebb" fill="#cfdebb" style="animation-play-state:paused" ></path>
<path d="M-144 592L-117 879L212 657z" stroke="#8fb697" fill="#8fb697" style="animation-play-state:paused" ></path>
<path d="M2701 2143L2946 1871L2698 1881z" stroke="#357476" fill="#357476" style="animation-play-state:paused" ></path>
<path d="M888 -452L644 -413L628 -169z" stroke="#d8e5c3" fill="#d8e5c3" style="animation-play-state:paused" ></path>
<path d="M418 -132L127 95L400 80z" stroke="#bfd2ae" fill="#bfd2ae" style="animation-play-state:paused" ></path>
<path d="M114 320L-144 592L212 657z" stroke="#9bbd9b" fill="#9bbd9b" style="animation-play-state:paused" ></path>
<path d="M106 -183L127 95L418 -132z" stroke="#c5d7b3" fill="#c5d7b3" style="animation-play-state:paused" ></path>
<path d="M397 2142L636 2372L653 2162z" stroke="#2c6b73" fill="#2c6b73" style="animation-play-state:paused" ></path>
<path d="M125 1610L146 1881L350 1579z" stroke="#4c877d" fill="#4c877d" style="animation-play-state:paused" ></path>
<path d="M-70 1698L146 1881L125 1610z" stroke="#4a857c" fill="#4a857c" style="animation-play-state:paused" ></path>
<path d="M3270 1676L3178 1343L3009 1690z" stroke="#508a7f" fill="#508a7f" style="animation-play-state:paused" ></path>
<path d="M3009 1690L3178 1343L2971 1400z" stroke="#568f82" fill="#568f82" style="animation-play-state:paused" ></path>
<path d="M2993 1160L3235 1118L2992 881z" stroke="#74a790" fill="#74a790" style="animation-play-state:paused" ></path>
<path d="M2992 881L3177 568L2943 594z" stroke="#8eb697" fill="#8eb697" style="animation-play-state:paused" ></path>
<path d="M-117 879L-120 1117L151 1112z" stroke="#79aa91" fill="#79aa91" style="animation-play-state:paused" ></path>
<path d="M3177 328L2940 306L2943 594z" stroke="#a1c09d" fill="#a1c09d" style="animation-play-state:paused" ></path>
<path d="M2940 306L2995 123L2718 120z" stroke="#b1c8a3" fill="#b1c8a3" style="animation-play-state:paused" ></path>
<path d="M2697 -142L2681 -425L2514 -365z" stroke="#d4e3c0" fill="#d4e3c0" style="animation-play-state:paused" ></path>
<path d="M3178 1343L3235 1118L2993 1160z" stroke="#699e8b" fill="#699e8b" style="animation-play-state:paused" ></path>
<path d="M3265 919L3177 568L2992 881z" stroke="#87b295" fill="#87b295" style="animation-play-state:paused" ></path>
<path d="M-120 1117L-99 1396L151 1112z" stroke="#6ca18c" fill="#6ca18c" style="animation-play-state:paused" ></path>
<path d="M-135 345L-144 592L114 320z" stroke="#a2c09d" fill="#a2c09d" style="animation-play-state:paused" ></path>
<path d="M-117 879L-312 917L-120 1117z" stroke="#7dad93" fill="#7dad93" style="animation-play-state:paused" ></path>
<path d="M3235 1118L3265 919L2992 881z" stroke="#7aab92" fill="#7aab92" style="animation-play-state:paused" ></path>
<path d="M-99 1396L-70 1698L125 1610z" stroke="#548d81" fill="#548d81" style="animation-play-state:paused" ></path>
<path d="M146 1881L128 2132L399 1884z" stroke="#3b7877" fill="#3b7877" style="animation-play-state:paused" ></path>
<path d="M3221 86L3177 328L3470 335z" stroke="#acc5a1" fill="#acc5a1" style="animation-play-state:paused" ></path>
<path d="M3177 568L3177 328L2943 594z" stroke="#9bbc9b" fill="#9bbc9b" style="animation-play-state:paused" ></path>
<path d="M2947 -442L2681 -425L2697 -142z" stroke="#d6e4c1" fill="#d6e4c1" style="animation-play-state:paused" ></path>
<path d="M644 -413L403 -392L628 -169z" stroke="#d6e4c2" fill="#d6e4c2" style="animation-play-state:paused" ></path>
<path d="M-87 125L114 320L127 95z" stroke="#b3c9a4" fill="#b3c9a4" style="animation-play-state:paused" ></path>
<path d="M-87 125L-135 345L114 320z" stroke="#adc6a1" fill="#adc6a1" style="animation-play-state:paused" ></path>
<path d="M2412 2364L2696 2390L2443 2132z" stroke="#24616f" fill="#24616f" style="animation-play-state:paused" ></path>
<path d="M3203 2142L3189 1886L2946 1871z" stroke="#357376" fill="#357376" style="animation-play-state:paused" ></path>
<path d="M2208 2411L2696 2390L2412 2364z" stroke="#225d6d" fill="#225d6d" style="animation-play-state:paused" ></path>
<path d="M2992 -117L2718 120L2995 123z" stroke="#bbcfab" fill="#bbcfab" style="animation-play-state:paused" ></path>
<path d="M2514 -365L2681 -425L2211 -428z" stroke="#dbe8c6" fill="#dbe8c6" style="animation-play-state:paused" ></path>
<path d="M2211 -428L3163 -462L1421 -429z" stroke="#deeac8" fill="#deeac8" style="animation-play-state:paused" ></path>
<path d="M-87 1914L128 2132L146 1881z" stroke="#3b7877" fill="#3b7877" style="animation-play-state:paused" ></path>
<path d="M397 2142L408 2408L636 2372z" stroke="#2a6872" fill="#2a6872" style="animation-play-state:paused" ></path>
<path d="M3221 86L2992 -117L2995 123z" stroke="#bcd0ab" fill="#bcd0ab" style="animation-play-state:paused" ></path>
<path d="M173 2416L408 2408L397 2142z" stroke="#2a6872" fill="#2a6872" style="animation-play-state:paused" ></path>
<path d="M636 2372L408 2408L925 2426z" stroke="#276470" fill="#276470" style="animation-play-state:paused" ></path>
<path d="M925 2426L-58 2444L1204 2434z" stroke="#266370" fill="#266370" style="animation-play-state:paused" ></path>
<path d="M186 -389L106 -183L418 -132z" stroke="#d0dfbc" fill="#d0dfbc" style="animation-play-state:paused" ></path>
<path d="M-99 -157L-87 125L127 95z" stroke="#bed2ad" fill="#bed2ad" style="animation-play-state:paused" ></path>
<path d="M-361 619L-117 879L-144 592z" stroke="#90b797" fill="#90b797" style="animation-play-state:paused" ></path>
<path d="M-361 619L-312 917L-117 879z" stroke="#89b395" fill="#89b395" style="animation-play-state:paused" ></path>
<path d="M-120 1117L-384 1363L-99 1396z" stroke="#679c8a" fill="#679c8a" style="animation-play-state:paused" ></path>
<path d="M-337 1648L-87 1914L-70 1698z" stroke="#49847c" fill="#49847c" style="animation-play-state:paused" ></path>
<path d="M-361 619L-144 592L-392 326z" stroke="#9cbd9b" fill="#9cbd9b" style="animation-play-state:paused" ></path>
<path d="M3189 1886L3270 1676L3009 1690z" stroke="#448079" fill="#448079" style="animation-play-state:paused" ></path>
<path d="M3499 1414L3450 1095L3235 1118z" stroke="#699e8b" fill="#699e8b" style="animation-play-state:paused" ></path>
<path d="M3235 1118L3450 1095L3265 919z" stroke="#75a790" fill="#75a790" style="animation-play-state:paused" ></path>
<path d="M3189 1886L3009 1690L2946 1871z" stroke="#3f7c78" fill="#3f7c78" style="animation-play-state:paused" ></path>
<path d="M-70 1698L-87 1914L146 1881z" stroke="#448079" fill="#448079" style="animation-play-state:paused" ></path>
<path d="M-337 1648L-70 1698L-99 1396z" stroke="#548d81" fill="#548d81" style="animation-play-state:paused" ></path>
<path d="M3002 2191L2946 1871L2701 2143z" stroke="#2f6d74" fill="#2f6d74" style="animation-play-state:paused" ></path>
<path d="M3470 335L3177 328L3177 568z" stroke="#a1bf9d" fill="#a1bf9d" style="animation-play-state:paused" ></path>
<path d="M3177 328L3221 86L2995 123z" stroke="#b1c8a3" fill="#b1c8a3" style="animation-play-state:paused" ></path>
<path d="M3499 1414L3235 1118L3178 1343z" stroke="#639988" fill="#639988" style="animation-play-state:paused" ></path>
<path d="M3265 919L3503 659L3177 568z" stroke="#8cb596" fill="#8cb596" style="animation-play-state:paused" ></path>
<path d="M2696 2390L3002 2191L2701 2143z" stroke="#266470" fill="#266470" style="animation-play-state:paused" ></path>
<path d="M-312 917L-361 1119L-120 1117z" stroke="#78aa91" fill="#78aa91" style="animation-play-state:paused" ></path>
<path d="M106 -183L-99 -157L127 95z" stroke="#c6d7b3" fill="#c6d7b3" style="animation-play-state:paused" ></path>
<path d="M403 -392L186 -389L418 -132z" stroke="#d5e3c1" fill="#d5e3c1" style="animation-play-state:paused" ></path>
<path d="M-141 -457L186 -389L403 -392z" stroke="#dde9c7" fill="#dde9c7" style="animation-play-state:paused" ></path>
<path d="M-392 326L-144 592L-135 345z" stroke="#a3c09d" fill="#a3c09d" style="animation-play-state:paused" ></path>
<path d="M-621 887L-612 1145L-361 1119z" stroke="#79aa91" fill="#79aa91" style="animation-play-state:paused" ></path>
<path d="M3499 1414L3496 901L3450 1095z" stroke="#6ea28d" fill="#6ea28d" style="animation-play-state:paused" ></path>
<path d="M3450 1095L3496 901L3265 919z" stroke="#7aab92" fill="#7aab92" style="animation-play-state:paused" ></path>
<path d="M-612 1145L-384 1363L-361 1119z" stroke="#6da18c" fill="#6da18c" style="animation-play-state:paused" ></path>
<path d="M-361 1119L-384 1363L-120 1117z" stroke="#6da28d" fill="#6da28d" style="animation-play-state:paused" ></path>
<path d="M3195 -176L2947 -442L2992 -117z" stroke="#d0dfbc" fill="#d0dfbc" style="animation-play-state:paused" ></path>
<path d="M2992 -117L2947 -442L2697 -142z" stroke="#cfdebb" fill="#cfdebb" style="animation-play-state:paused" ></path>
<path d="M2681 -425L3163 -462L2211 -428z" stroke="#ddeac8" fill="#ddeac8" style="animation-play-state:paused" ></path>
<path d="M3468 1887L3424 1588L3270 1676z" stroke="#46817a" fill="#46817a" style="animation-play-state:paused" ></path>
<path d="M3270 1676L3424 1588L3178 1343z" stroke="#528c80" fill="#528c80" style="animation-play-state:paused" ></path>
<path d="M3468 1887L3270 1676L3189 1886z" stroke="#3f7c78" fill="#3f7c78" style="animation-play-state:paused" ></path>
<path d="M-50 2201L128 2132L-87 1914z" stroke="#357376" fill="#357376" style="animation-play-state:paused" ></path>
<path d="M-50 2201L173 2416L128 2132z" stroke="#2d6c73" fill="#2d6c73" style="animation-play-state:paused" ></path>
<path d="M128 2132L173 2416L397 2142z" stroke="#2e6c73" fill="#2e6c73" style="animation-play-state:paused" ></path>
<path d="M408 2408L173 2416L925 2426z" stroke="#276570" fill="#276570" style="animation-play-state:paused" ></path>
<path d="M1204 2434L3005 2449L2208 2411z" stroke="#215c6d" fill="#215c6d" style="animation-play-state:paused" ></path>
<path d="M3496 901L3503 659L3265 919z" stroke="#84b194" fill="#84b194" style="animation-play-state:paused" ></path>
<path d="M3221 86L3195 -176L2992 -117z" stroke="#c3d5b1" fill="#c3d5b1" style="animation-play-state:paused" ></path>
<path d="M-384 1363L-337 1648L-99 1396z" stroke="#5b9384" fill="#5b9384" style="animation-play-state:paused" ></path>
<path d="M-141 -457L-99 -157L106 -183z" stroke="#d3e1be" fill="#d3e1be" style="animation-play-state:paused" ></path>
<path d="M-376 79L-392 326L-135 345z" stroke="#aec6a1" fill="#aec6a1" style="animation-play-state:paused" ></path>
<path d="M-309 2199L-50 2201L-87 1914z" stroke="#357376" fill="#357376" style="animation-play-state:paused" ></path>
<path d="M3424 1588L3499 1414L3178 1343z" stroke="#589183" fill="#589183" style="animation-play-state:paused" ></path>
<path d="M3496 901L3499 1414L3503 659z" stroke="#79aa92" fill="#79aa92" style="animation-play-state:paused" ></path>
<path d="M3423 39L3195 -176L3221 86z" stroke="#bfd2ae" fill="#bfd2ae" style="animation-play-state:paused" ></path>
<path d="M3503 659L3470 335L3177 568z" stroke="#99bc9a" fill="#99bc9a" style="animation-play-state:paused" ></path>
<path d="M3210 2380L3203 2142L3002 2191z" stroke="#266370" fill="#266370" style="animation-play-state:paused" ></path>
<path d="M3002 2191L3203 2142L2946 1871z" stroke="#2f6d74" fill="#2f6d74" style="animation-play-state:paused" ></path>
<path d="M-376 79L-135 345L-87 125z" stroke="#b3c9a4" fill="#b3c9a4" style="animation-play-state:paused" ></path>
<path d="M-621 887L-361 1119L-312 917z" stroke="#7ead93" fill="#7ead93" style="animation-play-state:paused" ></path>
<path d="M2208 2411L3005 2449L2696 2390z" stroke="#215b6c" fill="#215b6c" style="animation-play-state:paused" ></path>
<path d="M2696 2390L3005 2449L3002 2191z" stroke="#225e6d" fill="#225e6d" style="animation-play-state:paused" ></path>
<path d="M-58 2444L3005 2449L1204 2434z" stroke="#23606e" fill="#23606e" style="animation-play-state:paused" ></path>
<path d="M-50 2201L-58 2444L173 2416z" stroke="#2b6972" fill="#2b6972" style="animation-play-state:paused" ></path>
<path d="M-337 1648L-326 1916L-87 1914z" stroke="#45817a" fill="#45817a" style="animation-play-state:paused" ></path>
<path d="M-588 1682L-326 1916L-337 1648z" stroke="#4a857c" fill="#4a857c" style="animation-play-state:paused" ></path>
<path d="M3478 -157L3423 39L3470 335z" stroke="#b9cea9" fill="#b9cea9" style="animation-play-state:paused" ></path>
<path d="M3470 335L3423 39L3221 86z" stroke="#b3c9a4" fill="#b3c9a4" style="animation-play-state:paused" ></path>
<path d="M-99 -157L-376 79L-87 125z" stroke="#bfd2ae" fill="#bfd2ae" style="animation-play-state:paused" ></path>
<path d="M3203 2142L3468 1887L3189 1886z" stroke="#347375" fill="#347375" style="animation-play-state:paused" ></path>
<path d="M3424 1588L3468 1887L3499 1414z" stroke="#4c867d" fill="#4c867d" style="animation-play-state:paused" ></path>
<path d="M3499 2178L3468 1887L3203 2142z" stroke="#2e6d74" fill="#2e6d74" style="animation-play-state:paused" ></path>
<path d="M-621 887L-312 917L-361 619z" stroke="#89b395" fill="#89b395" style="animation-play-state:paused" ></path>
<path d="M-384 1363L-586 1397L-337 1648z" stroke="#5b9385" fill="#5b9385" style="animation-play-state:paused" ></path>
<path d="M-621 887L-361 619L-646 592z" stroke="#90b797" fill="#90b797" style="animation-play-state:paused" ></path>
<path d="M-646 592L-361 619L-392 326z" stroke="#9dbd9b" fill="#9dbd9b" style="animation-play-state:paused" ></path>
<path d="M3448 -446L3163 -462L3195 -176z" stroke="#d8e5c3" fill="#d8e5c3" style="animation-play-state:paused" ></path>
<path d="M3195 -176L3163 -462L2947 -442z" stroke="#d8e5c3" fill="#d8e5c3" style="animation-play-state:paused" ></path>
<path d="M2947 -442L3163 -462L2681 -425z" stroke="#deeac8" fill="#deeac8" style="animation-play-state:paused" ></path>
<path d="M-309 2199L-58 2444L-50 2201z" stroke="#2d6c73" fill="#2d6c73" style="animation-play-state:paused" ></path>
<path d="M173 2416L-58 2444L925 2426z" stroke="#286571" fill="#286571" style="animation-play-state:paused" ></path>
<path d="M-612 1145L-586 1397L-384 1363z" stroke="#679c8a" fill="#679c8a" style="animation-play-state:paused" ></path>
<path d="M-326 1916L-309 2199L-87 1914z" stroke="#3a7877" fill="#3a7877" style="animation-play-state:paused" ></path>
<path d="M3005 2449L3210 2380L3002 2191z" stroke="#225e6d" fill="#225e6d" style="animation-play-state:paused" ></path>
<path d="M-99 -157L-365 -173L-376 79z" stroke="#c6d8b4" fill="#c6d8b4" style="animation-play-state:paused" ></path>
<path d="M186 -389L-141 -457L106 -183z" stroke="#d8e6c3" fill="#d8e6c3" style="animation-play-state:paused" ></path>
<path d="M644 -413L-141 -457L403 -392z" stroke="#ddeac8" fill="#ddeac8" style="animation-play-state:paused" ></path>
<path d="M888 -452L-141 -457L644 -413z" stroke="#dfebc9" fill="#dfebc9" style="animation-play-state:paused" ></path>
<path d="M3163 -462L-141 -457L888 -452z" stroke="#dfebc9" fill="#dfebc9" style="animation-play-state:paused" ></path>
<path d="M-650 301L-646 592L-392 326z" stroke="#a4c19e" fill="#a4c19e" style="animation-play-state:paused" ></path>
<path d="M-621 887L-646 592L-612 1145z" stroke="#84b194" fill="#84b194" style="animation-play-state:paused" ></path>
<path d="M-598 144L-392 326L-376 79z" stroke="#b3c9a5" fill="#b3c9a5" style="animation-play-state:paused" ></path>
<path d="M-610 2163L-309 2199L-326 1916z" stroke="#367576" fill="#367576" style="animation-play-state:paused" ></path>
<path d="M-141 -457L-365 -173L-99 -157z" stroke="#d3e1be" fill="#d3e1be" style="animation-play-state:paused" ></path>
<path d="M-579 1913L-588 1682L-586 1397z" stroke="#4f8a7f" fill="#4f8a7f" style="animation-play-state:paused" ></path>
<path d="M-586 1397L-588 1682L-337 1648z" stroke="#558e81" fill="#558e81" style="animation-play-state:paused" ></path>
<path d="M3503 659L3478 -157L3470 335z" stroke="#aac4a0" fill="#aac4a0" style="animation-play-state:paused" ></path>
<path d="M3423 39L3478 -157L3195 -176z" stroke="#c5d7b3" fill="#c5d7b3" style="animation-play-state:paused" ></path>
<path d="M3210 2380L3499 2178L3203 2142z" stroke="#266370" fill="#266370" style="animation-play-state:paused" ></path>
<path d="M3468 1887L3499 2178L3499 1414z" stroke="#3e7b78" fill="#3e7b78" style="animation-play-state:paused" ></path>
<path d="M-587 -132L-598 144L-376 79z" stroke="#bed2ad" fill="#bed2ad" style="animation-play-state:paused" ></path>
<path d="M-598 144L-650 301L-392 326z" stroke="#aec6a1" fill="#aec6a1" style="animation-play-state:paused" ></path>
<path d="M-646 592L-650 301L-612 1145z" stroke="#91b898" fill="#91b898" style="animation-play-state:paused" ></path>
<path d="M-610 2163L-579 1913L-586 1397z" stroke="#46827b" fill="#46827b" style="animation-play-state:paused" ></path>
<path d="M-588 1682L-579 1913L-326 1916z" stroke="#45817a" fill="#45817a" style="animation-play-state:paused" ></path>
<path d="M-309 2199L-399 2355L-58 2444z" stroke="#2c6b73" fill="#2c6b73" style="animation-play-state:paused" ></path>
<path d="M-610 2163L-586 1397L-612 1145z" stroke="#558f82" fill="#558f82" style="animation-play-state:paused" ></path>
<path d="M3478 -157L3448 -446L3195 -176z" stroke="#d1e0bd" fill="#d1e0bd" style="animation-play-state:paused" ></path>
<path d="M-610 2163L-399 2355L-309 2199z" stroke="#306f74" fill="#306f74" style="animation-play-state:paused" ></path>
<path d="M-365 -173L-587 -132L-376 79z" stroke="#c6d7b3" fill="#c6d7b3" style="animation-play-state:paused" ></path>
<path d="M-598 144L-587 -132L-650 301z" stroke="#b9cea9" fill="#b9cea9" style="animation-play-state:paused" ></path>
<path d="M-141 -457L-402 -452L-365 -173z" stroke="#dae7c4" fill="#dae7c4" style="animation-play-state:paused" ></path>
<path d="M-605 -387L-587 -132L-365 -173z" stroke="#d1e0bd" fill="#d1e0bd" style="animation-play-state:paused" ></path>
<path d="M3005 2449L3485 2416L3210 2380z" stroke="#20596b" fill="#20596b" style="animation-play-state:paused" ></path>
<path d="M3210 2380L3485 2416L3499 2178z" stroke="#235e6e" fill="#235e6e" style="animation-play-state:paused" ></path>
<path d="M-617 2388L-610 2163L-612 1145z" stroke="#427e79" fill="#427e79" style="animation-play-state:paused" ></path>
<path d="M-579 1913L-610 2163L-326 1916z" stroke="#3c7977" fill="#3c7977" style="animation-play-state:paused" ></path>
<path d="M-402 -452L-605 -387L-365 -173z" stroke="#d8e6c3" fill="#d8e6c3" style="animation-play-state:paused" ></path>
<path d="M-587 -132L-605 -387L-650 301z" stroke="#c6d7b3" fill="#c6d7b3" style="animation-play-state:paused" ></path>
<path d="M-650 301L-617 2388L-612 1145z" stroke="#699e8a" fill="#699e8a" style="animation-play-state:paused" ></path>
<path d="M-610 2163L-617 2388L-399 2355z" stroke="#2f6d74" fill="#2f6d74" style="animation-play-state:paused" ></path>
<path d="M-399 2355L-617 2388L-58 2444z" stroke="#2b6a72" fill="#2b6a72" style="animation-play-state:paused" ></path></g>
<style type="text/css" style="animation-play-state:paused" >#bk-0.5573093245464312 path { stroke-width: 1 }</style></g></svg>