<?xml version="1.0" encoding="utf-8"?><svg xmlns="http://www.w3.org/2000/svg" xmlns:xlink="http://www.w3.org/1999/xlink" width="505" height="289" preserveAspectRatio="xMidYMid" viewBox="0 0 505 289" style="z-index:1;display:block;background-color:rgb(241, 242, 243);animation-play-state:paused" ><g transform="" style="animation-play-state:paused" ><g id="bk-0.49544579288265445" style="animation-play-state:paused" ><path d="M227 171L172 162L212 204z" stroke="#e6cd8f" fill="#e6cd8f" style="animation-play-state:paused" ></path>
<path d="M172 162L163 194L212 204z" stroke="#e6cc8f" fill="#e6cc8f" style="animation-play-state:paused" ></path>
<path d="M172 162L149 159L163 194z" stroke="#e7ce92" fill="#e7ce92" style="animation-play-state:paused" ></path>
<path d="M203 261L252 210L212 204z" stroke="#e5c788" fill="#e5c788" style="animation-play-state:paused" ></path>
<path d="M212 204L252 210L227 171z" stroke="#e6ca8c" fill="#e6ca8c" style="animation-play-state:paused" ></path>
<path d="M267 120L222 113L227 171z" stroke="#e8d195" fill="#e8d195" style="animation-play-state:paused" ></path>
<path d="M227 171L222 113L172 162z" stroke="#e7d093" fill="#e7d093" style="animation-play-state:paused" ></path>
<path d="M172 162L118 137L149 159z" stroke="#e8d195" fill="#e8d195" style="animation-play-state:paused" ></path>
<path d="M222 113L153 103L172 162z" stroke="#e8d397" fill="#e8d397" style="animation-play-state:paused" ></path>
<path d="M252 210L278 162L227 171z" stroke="#e6cb8d" fill="#e6cb8d" style="animation-play-state:paused" ></path>
<path d="M163 194L203 261L212 204z" stroke="#e5c98a" fill="#e5c98a" style="animation-play-state:paused" ></path>
<path d="M97 209L126 203L79 156z" stroke="#e7ce91" fill="#e7ce91" style="animation-play-state:paused" ></path>
<path d="M149 159L126 203L163 194z" stroke="#e7cd90" fill="#e7cd90" style="animation-play-state:paused" ></path>
<path d="M163 194L171 250L203 261z" stroke="#e5c889" fill="#e5c889" style="animation-play-state:paused" ></path>
<path d="M141 256L171 250L163 194z" stroke="#e5c98a" fill="#e5c98a" style="animation-play-state:paused" ></path>
<path d="M153 103L118 137L172 162z" stroke="#e8d297" fill="#e8d297" style="animation-play-state:paused" ></path>
<path d="M278 162L267 120L227 171z" stroke="#e7ce92" fill="#e7ce92" style="animation-play-state:paused" ></path>
<path d="M126 203L141 256L163 194z" stroke="#e6ca8c" fill="#e6ca8c" style="animation-play-state:paused" ></path>
<path d="M79 156L126 203L149 159z" stroke="#e7cf93" fill="#e7cf93" style="animation-play-state:paused" ></path>
<path d="M126 203L97 209L141 256z" stroke="#e6cb8d" fill="#e6cb8d" style="animation-play-state:paused" ></path>
<path d="M253 304L268 252L203 261z" stroke="#e3c281" fill="#e3c281" style="animation-play-state:paused" ></path>
<path d="M203 261L268 252L252 210z" stroke="#e4c586" fill="#e4c586" style="animation-play-state:paused" ></path>
<path d="M252 210L303 161L278 162z" stroke="#e6cb8d" fill="#e6cb8d" style="animation-play-state:paused" ></path>
<path d="M278 162L324 141L267 120z" stroke="#e7cf92" fill="#e7cf92" style="animation-play-state:paused" ></path>
<path d="M215 323L203 261L171 250z" stroke="#e4c483" fill="#e4c483" style="animation-play-state:paused" ></path>
<path d="M118 137L79 156L149 159z" stroke="#e8d296" fill="#e8d296" style="animation-play-state:paused" ></path>
<path d="M281 70L221 70L222 113z" stroke="#ead69c" fill="#ead69c" style="animation-play-state:paused" ></path>
<path d="M222 113L162 65L153 103z" stroke="#ead69d" fill="#ead69d" style="animation-play-state:paused" ></path>
<path d="M153 103L119 63L118 137z" stroke="#ead69d" fill="#ead69d" style="animation-play-state:paused" ></path>
<path d="M221 70L162 65L222 113z" stroke="#ead79e" fill="#ead79e" style="animation-play-state:paused" ></path>
<path d="M118 137L89 132L79 156z" stroke="#e8d398" fill="#e8d398" style="animation-play-state:paused" ></path>
<path d="M151 323L161 307L141 256z" stroke="#e4c484" fill="#e4c484" style="animation-play-state:paused" ></path>
<path d="M141 256L161 307L171 250z" stroke="#e4c686" fill="#e4c686" style="animation-play-state:paused" ></path>
<path d="M301 221L303 161L252 210z" stroke="#e5c98a" fill="#e5c98a" style="animation-play-state:paused" ></path>
<path d="M268 252L301 221L252 210z" stroke="#e5c686" fill="#e5c686" style="animation-play-state:paused" ></path>
<path d="M311 74L281 70L267 120z" stroke="#e9d59b" fill="#e9d59b" style="animation-play-state:paused" ></path>
<path d="M267 120L281 70L222 113z" stroke="#e9d499" fill="#e9d499" style="animation-play-state:paused" ></path>
<path d="M119 63L89 132L118 137z" stroke="#e9d69c" fill="#e9d69c" style="animation-play-state:paused" ></path>
<path d="M161 307L215 323L171 250z" stroke="#e3c382" fill="#e3c382" style="animation-play-state:paused" ></path>
<path d="M268 252L304 250L301 221z" stroke="#e4c484" fill="#e4c484" style="animation-play-state:paused" ></path>
<path d="M162 65L119 63L153 103z" stroke="#ead9a0" fill="#ead9a0" style="animation-play-state:paused" ></path>
<path d="M374 161L324 141L303 161z" stroke="#e6cd8f" fill="#e6cd8f" style="animation-play-state:paused" ></path>
<path d="M303 161L324 141L278 162z" stroke="#e7cd90" fill="#e7cd90" style="animation-play-state:paused" ></path>
<path d="M44 198L70 268L97 209z" stroke="#e6cc8e" fill="#e6cc8e" style="animation-play-state:paused" ></path>
<path d="M97 209L70 268L141 256z" stroke="#e6c98b" fill="#e6c98b" style="animation-play-state:paused" ></path>
<path d="M44 198L97 209L79 156z" stroke="#e7cf93" fill="#e7cf93" style="animation-play-state:paused" ></path>
<path d="M215 323L253 304L203 261z" stroke="#e2c17f" fill="#e2c17f" style="animation-play-state:paused" ></path>
<path d="M72 294L151 323L141 256z" stroke="#e4c686" fill="#e4c686" style="animation-play-state:paused" ></path>
<path d="M189 344L217 360L215 323z" stroke="#e1bf7c" fill="#e1bf7c" style="animation-play-state:paused" ></path>
<path d="M310 299L304 250L268 252z" stroke="#e2c17f" fill="#e2c17f" style="animation-play-state:paused" ></path>
<path d="M301 221L374 161L303 161z" stroke="#e6ca8b" fill="#e6ca8b" style="animation-play-state:paused" ></path>
<path d="M221 70L180 22L162 65z" stroke="#ebdaa3" fill="#ebdaa3" style="animation-play-state:paused" ></path>
<path d="M162 65L128 16L119 63z" stroke="#ecdba5" fill="#ecdba5" style="animation-play-state:paused" ></path>
<path d="M220 33L180 22L221 70z" stroke="#ecdba4" fill="#ecdba4" style="animation-play-state:paused" ></path>
<path d="M119 63L85 70L89 132z" stroke="#ead8a0" fill="#ead8a0" style="animation-play-state:paused" ></path>
<path d="M89 132L33 154L79 156z" stroke="#e9d398" fill="#e9d398" style="animation-play-state:paused" ></path>
<path d="M90 35L85 70L119 63z" stroke="#ecdba5" fill="#ecdba5" style="animation-play-state:paused" ></path>
<path d="M324 141L311 74L267 120z" stroke="#e8d297" fill="#e8d297" style="animation-play-state:paused" ></path>
<path d="M276 30L220 33L221 70z" stroke="#ebdaa3" fill="#ebdaa3" style="animation-play-state:paused" ></path>
<path d="M276 30L221 70L281 70z" stroke="#ebd9a1" fill="#ebd9a1" style="animation-play-state:paused" ></path>
<path d="M182 -10L128 16L180 22z" stroke="#eeddab" fill="#eeddab" style="animation-play-state:paused" ></path>
<path d="M180 22L128 16L162 65z" stroke="#eddba7" fill="#eddba7" style="animation-play-state:paused" ></path>
<path d="M29 105L33 154L89 132z" stroke="#e9d59b" fill="#e9d59b" style="animation-play-state:paused" ></path>
<path d="M33 154L44 198L79 156z" stroke="#e8d196" fill="#e8d196" style="animation-play-state:paused" ></path>
<path d="M70 268L72 294L141 256z" stroke="#e5c889" fill="#e5c889" style="animation-play-state:paused" ></path>
<path d="M327 22L276 30L281 70z" stroke="#ebdaa3" fill="#ebdaa3" style="animation-play-state:paused" ></path>
<path d="M15 240L72 294L70 268z" stroke="#e6c98b" fill="#e6c98b" style="animation-play-state:paused" ></path>
<path d="M374 226L374 161L301 221z" stroke="#e5c788" fill="#e5c788" style="animation-play-state:paused" ></path>
<path d="M324 141L354 137L311 74z" stroke="#e8d195" fill="#e8d195" style="animation-play-state:paused" ></path>
<path d="M357 255L374 226L301 221z" stroke="#e4c383" fill="#e4c383" style="animation-play-state:paused" ></path>
<path d="M189 344L215 323L161 307z" stroke="#e2c17f" fill="#e2c17f" style="animation-play-state:paused" ></path>
<path d="M215 323L251 340L253 304z" stroke="#e1bf7b" fill="#e1bf7b" style="animation-play-state:paused" ></path>
<path d="M348 301L357 255L304 250z" stroke="#e1c07c" fill="#e1c07c" style="animation-play-state:paused" ></path>
<path d="M189 344L161 307L151 323z" stroke="#e3c280" fill="#e3c280" style="animation-play-state:paused" ></path>
<path d="M143 352L189 344L151 323z" stroke="#e2c180" fill="#e2c180" style="animation-play-state:paused" ></path>
<path d="M310 299L268 252L253 304z" stroke="#e1c07d" fill="#e1c07d" style="animation-play-state:paused" ></path>
<path d="M304 250L357 255L301 221z" stroke="#e3c382" fill="#e3c382" style="animation-play-state:paused" ></path>
<path d="M29 75L29 105L89 132z" stroke="#ead89f" fill="#ead89f" style="animation-play-state:paused" ></path>
<path d="M217 360L251 340L215 323z" stroke="#e0be7a" fill="#e0be7a" style="animation-play-state:paused" ></path>
<path d="M251 340L310 299L253 304z" stroke="#e0be79" fill="#e0be79" style="animation-play-state:paused" ></path>
<path d="M374 161L354 137L324 141z" stroke="#e7cd90" fill="#e7cd90" style="animation-play-state:paused" ></path>
<path d="M419 157L354 137L374 161z" stroke="#e6cc8f" fill="#e6cc8f" style="animation-play-state:paused" ></path>
<path d="M6 211L15 240L44 198z" stroke="#e7ce91" fill="#e7ce91" style="animation-play-state:paused" ></path>
<path d="M44 198L15 240L70 268z" stroke="#e6cc8f" fill="#e6cc8f" style="animation-play-state:paused" ></path>
<path d="M-10 179L44 198L33 154z" stroke="#e8d196" fill="#e8d196" style="animation-play-state:paused" ></path>
<path d="M77 338L143 352L151 323z" stroke="#e3c383" fill="#e3c383" style="animation-play-state:paused" ></path>
<path d="M128 16L90 35L119 63z" stroke="#eddba7" fill="#eddba7" style="animation-play-state:paused" ></path>
<path d="M85 70L29 75L89 132z" stroke="#ead9a0" fill="#ead9a0" style="animation-play-state:paused" ></path>
<path d="M125 -20L90 35L128 16z" stroke="#eeddac" fill="#eeddac" style="animation-play-state:paused" ></path>
<path d="M220 -16L182 -10L220 33z" stroke="#eeddab" fill="#eeddab" style="animation-play-state:paused" ></path>
<path d="M220 33L182 -10L180 22z" stroke="#eddca9" fill="#eddca9" style="animation-play-state:paused" ></path>
<path d="M311 74L327 22L281 70z" stroke="#ead9a0" fill="#ead9a0" style="animation-play-state:paused" ></path>
<path d="M276 30L220 -16L220 33z" stroke="#eddca8" fill="#eddca8" style="animation-play-state:paused" ></path>
<path d="M341 69L327 22L311 74z" stroke="#ead8a0" fill="#ead8a0" style="animation-play-state:paused" ></path>
<path d="M34 39L29 75L85 70z" stroke="#ecdba5" fill="#ecdba5" style="animation-play-state:paused" ></path>
<path d="M354 137L341 69L311 74z" stroke="#e9d499" fill="#e9d499" style="animation-play-state:paused" ></path>
<path d="M279 -4L220 -16L276 30z" stroke="#eedcaa" fill="#eedcaa" style="animation-play-state:paused" ></path>
<path d="M15 240L53 318L72 294z" stroke="#e5c98a" fill="#e5c98a" style="animation-play-state:paused" ></path>
<path d="M72 294L77 338L151 323z" stroke="#e4c585" fill="#e4c585" style="animation-play-state:paused" ></path>
<path d="M53 318L77 338L72 294z" stroke="#e5c687" fill="#e5c687" style="animation-play-state:paused" ></path>
<path d="M-29 125L-10 179L29 105z" stroke="#ead69c" fill="#ead69c" style="animation-play-state:paused" ></path>
<path d="M29 105L-10 179L33 154z" stroke="#e9d49a" fill="#e9d49a" style="animation-play-state:paused" ></path>
<path d="M15 240L8 252L53 318z" stroke="#e6ca8c" fill="#e6ca8c" style="animation-play-state:paused" ></path>
<path d="M420 247L398 205L374 226z" stroke="#e3c383" fill="#e3c383" style="animation-play-state:paused" ></path>
<path d="M374 226L398 205L374 161z" stroke="#e5c788" fill="#e5c788" style="animation-play-state:paused" ></path>
<path d="M354 137L391 107L341 69z" stroke="#e8d297" fill="#e8d297" style="animation-play-state:paused" ></path>
<path d="M420 247L374 226L357 255z" stroke="#e2c17f" fill="#e2c17f" style="animation-play-state:paused" ></path>
<path d="M352 340L348 301L310 299z" stroke="#debb75" fill="#debb75" style="animation-play-state:paused" ></path>
<path d="M310 299L348 301L304 250z" stroke="#e0bf7b" fill="#e0bf7b" style="animation-play-state:paused" ></path>
<path d="M-10 179L6 211L44 198z" stroke="#e8d094" fill="#e8d094" style="animation-play-state:paused" ></path>
<path d="M319 -14L276 30L327 22z" stroke="#eddca8" fill="#eddca8" style="animation-play-state:paused" ></path>
<path d="M319 -14L279 -4L276 30z" stroke="#eddca9" fill="#eddca9" style="animation-play-state:paused" ></path>
<path d="M398 205L419 157L374 161z" stroke="#e5c98b" fill="#e5c98b" style="animation-play-state:paused" ></path>
<path d="M217 360L308 368L251 340z" stroke="#dfbc77" fill="#dfbc77" style="animation-play-state:paused" ></path>
<path d="M251 340L308 368L310 299z" stroke="#dfbc76" fill="#dfbc76" style="animation-play-state:paused" ></path>
<path d="M189 344L308 368L217 360z" stroke="#e0bd78" fill="#e0bd78" style="animation-play-state:paused" ></path>
<path d="M143 352L308 368L189 344z" stroke="#e0bf7b" fill="#e0bf7b" style="animation-play-state:paused" ></path>
<path d="M419 157L391 107L354 137z" stroke="#e7ce92" fill="#e7ce92" style="animation-play-state:paused" ></path>
<path d="M6 211L8 252L15 240z" stroke="#e7cd90" fill="#e7cd90" style="animation-play-state:paused" ></path>
<path d="M53 318L38 336L77 338z" stroke="#e5c687" fill="#e5c687" style="animation-play-state:paused" ></path>
<path d="M187 -66L182 -10L220 -16z" stroke="#f0deb2" fill="#f0deb2" style="animation-play-state:paused" ></path>
<path d="M187 -66L125 -20L182 -10z" stroke="#f0dfb3" fill="#f0dfb3" style="animation-play-state:paused" ></path>
<path d="M182 -10L125 -20L128 16z" stroke="#efddae" fill="#efddae" style="animation-play-state:paused" ></path>
<path d="M90 35L34 39L85 70z" stroke="#eddba7" fill="#eddba7" style="animation-play-state:paused" ></path>
<path d="M51 4L34 39L90 35z" stroke="#eeddab" fill="#eeddab" style="animation-play-state:paused" ></path>
<path d="M6 84L-29 125L29 105z" stroke="#ebd9a0" fill="#ebd9a0" style="animation-play-state:paused" ></path>
<path d="M6 84L29 105L29 75z" stroke="#ebdaa2" fill="#ebdaa2" style="animation-play-state:paused" ></path>
<path d="M-10 179L-72 211L6 211z" stroke="#e8d195" fill="#e8d195" style="animation-play-state:paused" ></path>
<path d="M407 75L358 39L341 69z" stroke="#ead79e" fill="#ead79e" style="animation-play-state:paused" ></path>
<path d="M341 69L358 39L327 22z" stroke="#ebdaa1" fill="#ebdaa1" style="animation-play-state:paused" ></path>
<path d="M392 289L420 247L348 301z" stroke="#dfbd78" fill="#dfbd78" style="animation-play-state:paused" ></path>
<path d="M348 301L420 247L357 255z" stroke="#e0bf7b" fill="#e0bf7b" style="animation-play-state:paused" ></path>
<path d="M398 205L443 214L419 157z" stroke="#e5c788" fill="#e5c788" style="animation-play-state:paused" ></path>
<path d="M34 39L6 84L29 75z" stroke="#ecdba6" fill="#ecdba6" style="animation-play-state:paused" ></path>
<path d="M358 39L319 -14L327 22z" stroke="#eddba7" fill="#eddba7" style="animation-play-state:paused" ></path>
<path d="M2 315L38 336L53 318z" stroke="#e5c889" fill="#e5c889" style="animation-play-state:paused" ></path>
<path d="M77 338L38 336L143 352z" stroke="#e4c585" fill="#e4c585" style="animation-play-state:paused" ></path>
<path d="M308 368L352 340L310 299z" stroke="#deba73" fill="#deba73" style="animation-play-state:paused" ></path>
<path d="M391 107L407 75L341 69z" stroke="#e9d49a" fill="#e9d49a" style="animation-play-state:paused" ></path>
<path d="M457 127L407 75L391 107z" stroke="#e8d296" fill="#e8d296" style="animation-play-state:paused" ></path>
<path d="M8 252L2 315L53 318z" stroke="#e5c98b" fill="#e5c98b" style="animation-play-state:paused" ></path>
<path d="M-67 308L2 315L8 252z" stroke="#e6cb8d" fill="#e6cb8d" style="animation-play-state:paused" ></path>
<path d="M-60 256L8 252L6 211z" stroke="#e7ce91" fill="#e7ce91" style="animation-play-state:paused" ></path>
<path d="M222 -68L220 -16L279 -4z" stroke="#f0deb1" fill="#f0deb1" style="animation-play-state:paused" ></path>
<path d="M222 -68L187 -66L220 -16z" stroke="#f1dfb5" fill="#f1dfb5" style="animation-play-state:paused" ></path>
<path d="M284 -70L222 -68L279 -4z" stroke="#f0dfb4" fill="#f0dfb4" style="animation-play-state:paused" ></path>
<path d="M86 -52L71 -19L125 -20z" stroke="#f0dfb4" fill="#f0dfb4" style="animation-play-state:paused" ></path>
<path d="M125 -20L71 -19L90 35z" stroke="#efdeaf" fill="#efdeaf" style="animation-play-state:paused" ></path>
<path d="M34 39L-12 27L6 84z" stroke="#eddca9" fill="#eddca9" style="animation-play-state:paused" ></path>
<path d="M395 337L392 289L348 301z" stroke="#ddba73" fill="#ddba73" style="animation-play-state:paused" ></path>
<path d="M71 -19L51 4L90 35z" stroke="#efddae" fill="#efddae" style="animation-play-state:paused" ></path>
<path d="M321 -62L284 -70L319 -14z" stroke="#f0dfb3" fill="#f0dfb3" style="animation-play-state:paused" ></path>
<path d="M319 -14L284 -70L279 -4z" stroke="#efdeb0" fill="#efdeb0" style="animation-play-state:paused" ></path>
<path d="M222 -68L124 -83L187 -66z" stroke="#f2e1ba" fill="#f2e1ba" style="animation-play-state:paused" ></path>
<path d="M-51 119L-53 171L-29 125z" stroke="#ead79d" fill="#ead79d" style="animation-play-state:paused" ></path>
<path d="M-29 125L-53 171L-10 179z" stroke="#e9d59a" fill="#e9d59a" style="animation-play-state:paused" ></path>
<path d="M420 247L443 214L398 205z" stroke="#e3c383" fill="#e3c383" style="animation-play-state:paused" ></path>
<path d="M419 157L457 127L391 107z" stroke="#e7ce92" fill="#e7ce92" style="animation-play-state:paused" ></path>
<path d="M459 267L443 214L420 247z" stroke="#e1c07d" fill="#e1c07d" style="animation-play-state:paused" ></path>
<path d="M358 39L362 -29L319 -14z" stroke="#eddcaa" fill="#eddcaa" style="animation-play-state:paused" ></path>
<path d="M403 -26L362 -29L358 39z" stroke="#eedcaa" fill="#eedcaa" style="animation-play-state:paused" ></path>
<path d="M-53 171L-72 211L-10 179z" stroke="#e8d398" fill="#e8d398" style="animation-play-state:paused" ></path>
<path d="M453 174L457 127L419 157z" stroke="#e6cb8e" fill="#e6cb8e" style="animation-play-state:paused" ></path>
<path d="M407 75L411 20L358 39z" stroke="#ebd9a0" fill="#ebd9a0" style="animation-play-state:paused" ></path>
<path d="M352 340L395 337L348 301z" stroke="#ddb971" fill="#ddb971" style="animation-play-state:paused" ></path>
<path d="M392 289L459 267L420 247z" stroke="#e0bd78" fill="#e0bd78" style="animation-play-state:paused" ></path>
<path d="M428 62L411 20L407 75z" stroke="#ead89f" fill="#ead89f" style="animation-play-state:paused" ></path>
<path d="M-54 76L-51 119L-29 125z" stroke="#ebdaa2" fill="#ebdaa2" style="animation-play-state:paused" ></path>
<path d="M-53 171L-88 159L-72 211z" stroke="#e9d499" fill="#e9d499" style="animation-play-state:paused" ></path>
<path d="M-54 76L-29 125L6 84z" stroke="#ebdaa3" fill="#ebdaa3" style="animation-play-state:paused" ></path>
<path d="M187 -66L124 -83L125 -20z" stroke="#f1e0b7" fill="#f1e0b7" style="animation-play-state:paused" ></path>
<path d="M71 -19L48 -63L51 4z" stroke="#f1dfb4" fill="#f1dfb4" style="animation-play-state:paused" ></path>
<path d="M321 -62L124 -83L222 -68z" stroke="#f2e0b9" fill="#f2e0b9" style="animation-play-state:paused" ></path>
<path d="M443 214L453 174L419 157z" stroke="#e5c889" fill="#e5c889" style="animation-play-state:paused" ></path>
<path d="M124 -83L86 -52L125 -20z" stroke="#f1e0b7" fill="#f1e0b7" style="animation-play-state:paused" ></path>
<path d="M-54 331L-20 337L2 315z" stroke="#e6ca8b" fill="#e6ca8b" style="animation-play-state:paused" ></path>
<path d="M2 315L-20 337L38 336z" stroke="#e5c88a" fill="#e5c88a" style="animation-play-state:paused" ></path>
<path d="M38 336L-20 337L143 352z" stroke="#e5c687" fill="#e5c687" style="animation-play-state:paused" ></path>
<path d="M11 -7L34 39L51 4z" stroke="#efddae" fill="#efddae" style="animation-play-state:paused" ></path>
<path d="M11 -7L-12 27L34 39z" stroke="#efddae" fill="#efddae" style="animation-play-state:paused" ></path>
<path d="M-72 211L-60 256L6 211z" stroke="#e7d093" fill="#e7d093" style="animation-play-state:paused" ></path>
<path d="M48 -63L11 -7L51 4z" stroke="#f0dfb4" fill="#f0dfb4" style="animation-play-state:paused" ></path>
<path d="M457 27L428 62L493 59z" stroke="#ead89f" fill="#ead89f" style="animation-play-state:paused" ></path>
<path d="M457 127L428 62L407 75z" stroke="#e9d398" fill="#e9d398" style="animation-play-state:paused" ></path>
<path d="M362 -29L321 -62L319 -14z" stroke="#efdeb0" fill="#efdeb0" style="animation-play-state:paused" ></path>
<path d="M284 -70L321 -62L222 -68z" stroke="#f1e0b7" fill="#f1e0b7" style="animation-play-state:paused" ></path>
<path d="M-36 18L-54 76L6 84z" stroke="#eddca8" fill="#eddca8" style="animation-play-state:paused" ></path>
<path d="M-51 119L-89 132L-53 171z" stroke="#ead79e" fill="#ead79e" style="animation-play-state:paused" ></path>
<path d="M-36 18L6 84L-12 27z" stroke="#eedcab" fill="#eedcab" style="animation-play-state:paused" ></path>
<path d="M448 303L459 267L392 289z" stroke="#debb74" fill="#debb74" style="animation-play-state:paused" ></path>
<path d="M443 214L500 199L453 174z" stroke="#e5c686" fill="#e5c686" style="animation-play-state:paused" ></path>
<path d="M-60 256L-67 308L8 252z" stroke="#e6cd8f" fill="#e6cd8f" style="animation-play-state:paused" ></path>
<path d="M-48 -19L-36 18L-12 27z" stroke="#f0deb1" fill="#f0deb1" style="animation-play-state:paused" ></path>
<path d="M411 20L403 -26L358 39z" stroke="#eddba7" fill="#eddba7" style="animation-play-state:paused" ></path>
<path d="M362 -29L356 -76L321 -62z" stroke="#f0dfb4" fill="#f0dfb4" style="animation-play-state:paused" ></path>
<path d="M457 27L403 -26L411 20z" stroke="#eddba7" fill="#eddba7" style="animation-play-state:paused" ></path>
<path d="M86 -52L48 -63L71 -19z" stroke="#f1e0b7" fill="#f1e0b7" style="animation-play-state:paused" ></path>
<path d="M11 -7L-48 -19L-12 27z" stroke="#f0deb2" fill="#f0deb2" style="animation-play-state:paused" ></path>
<path d="M124 -83L48 -63L86 -52z" stroke="#f2e1bb" fill="#f2e1bb" style="animation-play-state:paused" ></path>
<path d="M403 -26L356 -76L362 -29z" stroke="#f0deb1" fill="#f0deb1" style="animation-play-state:paused" ></path>
<path d="M-107 65L-89 132L-54 76z" stroke="#ecdba6" fill="#ecdba6" style="animation-play-state:paused" ></path>
<path d="M-54 76L-89 132L-51 119z" stroke="#ebdaa2" fill="#ebdaa2" style="animation-play-state:paused" ></path>
<path d="M-72 211L-111 200L-60 256z" stroke="#e8d195" fill="#e8d195" style="animation-play-state:paused" ></path>
<path d="M-60 256L-108 262L-67 308z" stroke="#e7ce91" fill="#e7ce91" style="animation-play-state:paused" ></path>
<path d="M-89 132L-88 159L-53 171z" stroke="#ead69d" fill="#ead69d" style="animation-play-state:paused" ></path>
<path d="M395 337L448 303L392 289z" stroke="#ddb971" fill="#ddb971" style="animation-play-state:paused" ></path>
<path d="M459 267L500 199L443 214z" stroke="#e3c280" fill="#e3c280" style="animation-play-state:paused" ></path>
<path d="M453 174L510 140L457 127z" stroke="#e6cc8e" fill="#e6cc8e" style="animation-play-state:paused" ></path>
<path d="M499 264L500 199L459 267z" stroke="#e1bf7c" fill="#e1bf7c" style="animation-play-state:paused" ></path>
<path d="M493 59L428 62L457 127z" stroke="#e9d499" fill="#e9d499" style="animation-play-state:paused" ></path>
<path d="M428 62L457 27L411 20z" stroke="#ebdaa1" fill="#ebdaa1" style="animation-play-state:paused" ></path>
<path d="M403 -26L398 -68L356 -76z" stroke="#f0dfb3" fill="#f0dfb3" style="animation-play-state:paused" ></path>
<path d="M-88 159L-111 200L-72 211z" stroke="#e9d499" fill="#e9d499" style="animation-play-state:paused" ></path>
<path d="M500 199L506 164L453 174z" stroke="#e5c889" fill="#e5c889" style="animation-play-state:paused" ></path>
<path d="M-78 299L-54 331L-67 308z" stroke="#e6cc8e" fill="#e6cc8e" style="animation-play-state:paused" ></path>
<path d="M-67 308L-54 331L2 315z" stroke="#e6cb8c" fill="#e6cb8c" style="animation-play-state:paused" ></path>
<path d="M-9 -73L-48 -19L11 -7z" stroke="#f1e0b7" fill="#f1e0b7" style="animation-play-state:paused" ></path>
<path d="M-90 33L-107 65L-54 76z" stroke="#eedcab" fill="#eedcab" style="animation-play-state:paused" ></path>
<path d="M-88 159L-108 262L-111 200z" stroke="#e8d398" fill="#e8d398" style="animation-play-state:paused" ></path>
<path d="M-111 200L-108 262L-60 256z" stroke="#e8d094" fill="#e8d094" style="animation-play-state:paused" ></path>
<path d="M506 164L510 140L453 174z" stroke="#e6ca8c" fill="#e6ca8c" style="animation-play-state:paused" ></path>
<path d="M-108 262L-78 299L-67 308z" stroke="#e7cd90" fill="#e7cd90" style="animation-play-state:paused" ></path>
<path d="M510 140L493 59L457 127z" stroke="#e8d094" fill="#e8d094" style="animation-play-state:paused" ></path>
<path d="M508 297L499 264L459 267z" stroke="#debb74" fill="#debb74" style="animation-play-state:paused" ></path>
<path d="M500 199L559 223L506 164z" stroke="#e4c586" fill="#e4c586" style="animation-play-state:paused" ></path>
<path d="M506 164L533 135L510 140z" stroke="#e6cb8e" fill="#e6cb8e" style="animation-play-state:paused" ></path>
<path d="M124 -83L-9 -73L48 -63z" stroke="#f3e2bd" fill="#f3e2bd" style="animation-play-state:paused" ></path>
<path d="M48 -63L-9 -73L11 -7z" stroke="#f2e1b9" fill="#f2e1b9" style="animation-play-state:paused" ></path>
<path d="M395 337L446 371L448 303z" stroke="#dbb66b" fill="#dbb66b" style="animation-play-state:paused" ></path>
<path d="M448 303L508 297L459 267z" stroke="#ddba72" fill="#ddba72" style="animation-play-state:paused" ></path>
<path d="M352 340L446 371L395 337z" stroke="#dbb66c" fill="#dbb66c" style="animation-play-state:paused" ></path>
<path d="M308 368L446 371L352 340z" stroke="#dcb76e" fill="#dcb76e" style="animation-play-state:paused" ></path>
<path d="M143 352L446 371L308 368z" stroke="#deba73" fill="#deba73" style="animation-play-state:paused" ></path>
<path d="M-89 132L-107 65L-88 159z" stroke="#ebdaa2" fill="#ebdaa2" style="animation-play-state:paused" ></path>
<path d="M-88 159L-107 65L-108 262z" stroke="#ead69d" fill="#ead69d" style="animation-play-state:paused" ></path>
<path d="M-90 33L-54 76L-36 18z" stroke="#eeddac" fill="#eeddac" style="animation-play-state:paused" ></path>
<path d="M451 -21L403 -26L457 27z" stroke="#eddca9" fill="#eddca9" style="animation-play-state:paused" ></path>
<path d="M459 -60L398 -68L403 -26z" stroke="#f0dfb2" fill="#f0dfb2" style="animation-play-state:paused" ></path>
<path d="M356 -76L398 -68L321 -62z" stroke="#f1e0b6" fill="#f1e0b6" style="animation-play-state:paused" ></path>
<path d="M496 15L451 -21L457 27z" stroke="#eddba6" fill="#eddba6" style="animation-play-state:paused" ></path>
<path d="M491 353L508 297L448 303z" stroke="#dbb66b" fill="#dbb66b" style="animation-play-state:paused" ></path>
<path d="M-110 -28L-90 33L-48 -19z" stroke="#f1dfb5" fill="#f1dfb5" style="animation-play-state:paused" ></path>
<path d="M-48 -19L-90 33L-36 18z" stroke="#f0deb1" fill="#f0deb1" style="animation-play-state:paused" ></path>
<path d="M548 76L496 15L493 59z" stroke="#ead79e" fill="#ead79e" style="animation-play-state:paused" ></path>
<path d="M493 59L496 15L457 27z" stroke="#ebdaa1" fill="#ebdaa1" style="animation-play-state:paused" ></path>
<path d="M-108 262L-109 359L-78 299z" stroke="#e7cd90" fill="#e7cd90" style="animation-play-state:paused" ></path>
<path d="M-78 299L-109 359L-54 331z" stroke="#e6cc8e" fill="#e6cc8e" style="animation-play-state:paused" ></path>
<path d="M-54 331L-109 359L-20 337z" stroke="#e6cb8d" fill="#e6cb8d" style="animation-play-state:paused" ></path>
<path d="M-20 337L-109 359L143 352z" stroke="#e5c889" fill="#e5c889" style="animation-play-state:paused" ></path>
<path d="M446 371L491 353L448 303z" stroke="#d9b468" fill="#d9b468" style="animation-play-state:paused" ></path>
<path d="M538 305L548 257L499 264z" stroke="#deba73" fill="#deba73" style="animation-play-state:paused" ></path>
<path d="M-9 -73L-56 -74L-48 -19z" stroke="#f2e1bc" fill="#f2e1bc" style="animation-play-state:paused" ></path>
<path d="M538 305L499 264L508 297z" stroke="#dcb970" fill="#dcb970" style="animation-play-state:paused" ></path>
<path d="M499 264L548 257L500 199z" stroke="#e1bf7c" fill="#e1bf7c" style="animation-play-state:paused" ></path>
<path d="M510 140L548 76L493 59z" stroke="#e8d297" fill="#e8d297" style="animation-play-state:paused" ></path>
<path d="M548 257L559 223L500 199z" stroke="#e2c17f" fill="#e2c17f" style="animation-play-state:paused" ></path>
<path d="M451 -21L459 -60L403 -26z" stroke="#efdeaf" fill="#efdeaf" style="animation-play-state:paused" ></path>
<path d="M517 -3L459 -60L451 -21z" stroke="#efddad" fill="#efddad" style="animation-play-state:paused" ></path>
<path d="M559 223L563 181L506 164z" stroke="#e5c686" fill="#e5c686" style="animation-play-state:paused" ></path>
<path d="M563 181L533 135L506 164z" stroke="#e6ca8b" fill="#e6ca8b" style="animation-play-state:paused" ></path>
<path d="M496 15L517 -3L451 -21z" stroke="#eddca8" fill="#eddca8" style="animation-play-state:paused" ></path>
<path d="M-91 -63L-110 -28L-48 -19z" stroke="#f2e1ba" fill="#f2e1ba" style="animation-play-state:paused" ></path>
<path d="M533 135L548 76L510 140z" stroke="#e7cf93" fill="#e7cf93" style="animation-play-state:paused" ></path>
<path d="M535 7L517 -3L496 15z" stroke="#ecdba6" fill="#ecdba6" style="animation-play-state:paused" ></path>
<path d="M-56 -74L-91 -63L-48 -19z" stroke="#f2e2bc" fill="#f2e2bc" style="animation-play-state:paused" ></path>
<path d="M595 9L535 7L548 76z" stroke="#ebdaa1" fill="#ebdaa1" style="animation-play-state:paused" ></path>
<path d="M548 76L535 7L496 15z" stroke="#ebd9a1" fill="#ebd9a1" style="animation-play-state:paused" ></path>
<path d="M536 348L538 305L508 297z" stroke="#dab56a" fill="#dab56a" style="animation-play-state:paused" ></path>
<path d="M594 251L584 207L559 223z" stroke="#e2c17e" fill="#e2c17e" style="animation-play-state:paused" ></path>
<path d="M559 223L584 207L563 181z" stroke="#e4c484" fill="#e4c484" style="animation-play-state:paused" ></path>
<path d="M608 341L536 348L491 353z" stroke="#d7b162" fill="#d7b162" style="animation-play-state:paused" ></path>
<path d="M491 353L536 348L508 297z" stroke="#d9b367" fill="#d9b367" style="animation-play-state:paused" ></path>
<path d="M550 -31L504 -70L517 -3z" stroke="#efddae" fill="#efddae" style="animation-play-state:paused" ></path>
<path d="M517 -3L504 -70L459 -60z" stroke="#efdeb0" fill="#efdeb0" style="animation-play-state:paused" ></path>
<path d="M459 -60L504 -70L398 -68z" stroke="#f1dfb5" fill="#f1dfb5" style="animation-play-state:paused" ></path>
<path d="M602 180L582 126L533 135z" stroke="#e6cb8d" fill="#e6cb8d" style="animation-play-state:paused" ></path>
<path d="M533 135L582 126L548 76z" stroke="#e7d093" fill="#e7d093" style="animation-play-state:paused" ></path>
<path d="M594 251L559 223L548 257z" stroke="#e0be7a" fill="#e0be7a" style="animation-play-state:paused" ></path>
<path d="M538 305L594 251L548 257z" stroke="#debb73" fill="#debb73" style="animation-play-state:paused" ></path>
<path d="M602 314L594 251L538 305z" stroke="#dcb86f" fill="#dcb86f" style="animation-play-state:paused" ></path>
<path d="M602 180L533 135L563 181z" stroke="#e5c98a" fill="#e5c98a" style="animation-play-state:paused" ></path>
<path d="M535 7L550 -31L517 -3z" stroke="#eddca9" fill="#eddca9" style="animation-play-state:paused" ></path>
<path d="M602 314L602 180L584 207z" stroke="#e1c07c" fill="#e1c07c" style="animation-play-state:paused" ></path>
<path d="M584 207L602 180L563 181z" stroke="#e4c686" fill="#e4c686" style="animation-play-state:paused" ></path>
<path d="M595 9L550 -31L535 7z" stroke="#eddca8" fill="#eddca8" style="animation-play-state:paused" ></path>
<path d="M608 341L602 314L538 305z" stroke="#d9b467" fill="#d9b467" style="animation-play-state:paused" ></path>
<path d="M594 251L602 314L584 207z" stroke="#dfbc76" fill="#dfbc76" style="animation-play-state:paused" ></path>
<path d="M582 126L587 93L548 76z" stroke="#e8d196" fill="#e8d196" style="animation-play-state:paused" ></path>
<path d="M602 180L587 93L582 126z" stroke="#e7cd90" fill="#e7cd90" style="animation-play-state:paused" ></path>
<path d="M608 341L587 93L602 180z" stroke="#e4c483" fill="#e4c483" style="animation-play-state:paused" ></path>
<path d="M587 93L595 9L548 76z" stroke="#ead69c" fill="#ead69c" style="animation-play-state:paused" ></path>
<path d="M550 -31L553 -63L504 -70z" stroke="#f0deb2" fill="#f0deb2" style="animation-play-state:paused" ></path>
<path d="M585 -37L553 -63L550 -31z" stroke="#efdeb0" fill="#efdeb0" style="animation-play-state:paused" ></path>
<path d="M504 -70L589 -71L398 -68z" stroke="#f1dfb5" fill="#f1dfb5" style="animation-play-state:paused" ></path>
<path d="M536 348L608 341L538 305z" stroke="#d8b265" fill="#d8b265" style="animation-play-state:paused" ></path>
<path d="M602 314L608 341L602 180z" stroke="#ddb971" fill="#ddb971" style="animation-play-state:paused" ></path>
<path d="M446 371L608 341L491 353z" stroke="#d7b163" fill="#d7b163" style="animation-play-state:paused" ></path>
<path d="M587 93L585 -37L595 9z" stroke="#ebdaa3" fill="#ebdaa3" style="animation-play-state:paused" ></path>
<path d="M595 9L585 -37L550 -31z" stroke="#eedcab" fill="#eedcab" style="animation-play-state:paused" ></path>
<path d="M587 93L589 -71L585 -37z" stroke="#eddca8" fill="#eddca8" style="animation-play-state:paused" ></path>
<path d="M585 -37L589 -71L553 -63z" stroke="#f0dfb2" fill="#f0dfb2" style="animation-play-state:paused" ></path>
<path d="M553 -63L589 -71L504 -70z" stroke="#f1dfb4" fill="#f1dfb4" style="animation-play-state:paused" ></path>
<path d="M398 -68L589 -71L321 -62z" stroke="#f1dfb5" fill="#f1dfb5" style="animation-play-state:paused" ></path></g>
<style type="text/css" style="animation-play-state:paused" >#bk-0.49544579288265445 path { stroke-width: 1 }</style></g></svg>