<?xml version="1.0" standalone="no"?>
<!DOCTYPE svg PUBLIC "-//W3C//DTD SVG 20010904//EN"
 "http://www.w3.org/TR/2001/REC-SVG-20010904/DTD/svg10.dtd">
<svg version="1.0" xmlns="http://www.w3.org/2000/svg"
 width="512.000000pt" height="512.000000pt" viewBox="0 0 512.000000 512.000000"
 preserveAspectRatio="xMidYMid meet">
<metadata>
Created by potrace 1.11, written by Peter Selinger 2001-2013
</metadata>
<g transform="translate(0.000000,512.000000) scale(0.100000,-0.100000)"
fill="#000000" stroke="none">
<path d="M1705 5090 c-4 -6 -10 -8 -14 -5 -11 6 -87 -48 -130 -92 -39 -41 -66
-100 -111 -238 -45 -141 -50 -223 -18 -302 25 -61 25 -64 23 -340 -2 -153 -8
-293 -13 -310 -6 -18 -9 -33 -7 -33 11 0 -38 -94 -58 -111 -54 -45 -150 -27
-322 58 -132 65 -151 79 -178 127 -31 56 -81 194 -107 298 -24 94 -58 168 -76
168 -12 0 -21 -18 -78 -140 -36 -77 -61 -119 -91 -150 -24 -25 -31 -27 -84
-23 -51 4 -61 1 -89 -22 -71 -59 -101 -241 -77 -460 14 -126 9 -332 -14 -550
-11 -110 -21 -229 -22 -265 -1 -62 8 -120 18 -120 17 0 72 53 127 123 89 114
111 133 152 128 6 0 38 -36 71 -78 138 -175 325 -337 673 -584 184 -130 207
-151 220 -202 41 -166 93 -309 152 -422 87 -166 246 -346 372 -420 40 -24 45
-29 34 -44 -11 -14 -11 -14 3 -3 14 10 23 9 55 -7 65 -32 133 -61 144 -61 6 0
8 -6 4 -12 -6 -10 -4 -10 7 -2 17 13 74 -6 62 -21 -5 -5 -1 -4 8 3 19 14 50 6
43 -11 -6 -17 12 -41 25 -33 6 4 11 13 11 19 0 8 -3 8 -9 -2 -6 -9 -11 -10
-15 -2 -11 18 3 32 22 22 9 -4 23 -6 30 -4 6 3 12 -1 12 -9 0 -10 3 -9 10 2 9
13 14 11 32 -10 l21 -25 -7 25 c-3 14 -4 20 -1 15 3 -6 20 -9 39 -7 19 2 44
-1 56 -8 12 -7 20 -8 17 -3 -7 12 92 11 110 0 8 -5 11 -3 8 5 -4 9 6 13 30 14
20 1 35 -3 35 -10 0 -6 5 -3 11 7 13 22 26 22 32 0 4 -15 5 -14 6 2 1 19 9 23
59 27 6 1 12 5 12 10 0 4 3 7 8 6 7 -1 23 4 70 23 13 5 28 6 34 3 7 -4 8 -2 4
4 -4 7 -2 12 4 12 23 0 192 124 259 190 158 157 295 379 407 663 21 54 46 105
54 113 8 8 83 59 165 113 342 226 591 488 753 793 46 85 113 250 126 309 26
112 36 177 42 260 9 123 -3 164 -54 187 -21 9 -39 19 -42 22 -3 3 -18 12 -35
20 -46 24 -98 83 -133 152 -46 92 -45 91 -74 77 -48 -21 -99 -168 -114 -327
-4 -45 -13 -80 -23 -91 -22 -24 -228 -120 -273 -127 -34 -6 -38 -4 -44 22 -12
45 -5 219 11 303 1 9 6 54 10 101 4 47 9 92 10 101 5 23 21 208 24 266 1 12
26 52 57 90 58 70 84 117 84 153 0 38 -38 95 -103 155 -35 33 -74 78 -85 100
-37 73 -77 89 -180 71 -46 -8 -61 -33 -47 -77 10 -32 91 -108 157 -148 31 -19
61 -44 67 -57 9 -21 7 -24 -27 -36 -56 -20 -233 -16 -312 6 -36 11 -110 42
-165 69 -90 45 -106 50 -160 49 -33 -1 -71 -4 -85 -7 -44 -9 -254 -6 -343 5
-221 27 -420 109 -611 251 -60 44 -127 88 -150 96 -31 11 -90 15 -250 15 -114
0 -214 2 -220 4 -13 5 -13 26 -1 103 5 32 3 46 -6 52 -18 11 -26 11 -34 -1z"/>
<path d="M3295 1070 c-74 -23 -174 -155 -169 -223 2 -17 -1 -25 -8 -21 -6 4
-6 -2 1 -15 9 -16 9 -21 -1 -21 -8 0 -6 -5 5 -11 10 -6 42 -8 72 -6 39 3 55 1
59 -9 7 -17 80 -10 133 13 21 9 40 17 43 18 12 1 63 53 81 81 24 40 24 66 -1
89 -11 10 -20 23 -20 29 0 7 -13 27 -28 45 -25 30 -35 34 -83 37 -30 2 -68 -1
-84 -6z"/>
<path d="M2150 1030 c-12 -8 -12 -10 -1 -10 11 0 11 -3 0 -17 -13 -15 -12 -15
9 -2 12 8 18 15 12 17 -6 2 -8 8 -4 13 7 11 3 11 -16 -1z"/>
<path d="M2030 1020 c0 -5 5 -10 11 -10 5 0 7 5 4 10 -3 6 -8 10 -11 10 -2 0
-4 -4 -4 -10z"/>
<path d="M2117 1004 c-8 -8 2 -57 14 -69 7 -7 7 -2 1 15 -5 14 -8 33 -7 43 3
18 2 20 -8 11z"/>
<path d="M2202 997 c-8 -10 -6 -13 7 -13 11 0 17 6 14 13 -3 7 -6 13 -8 13 -1
0 -7 -6 -13 -13z"/>
<path d="M2160 980 c-9 -6 -10 -10 -3 -10 6 0 15 5 18 10 8 12 4 12 -15 0z"/>
<path d="M2335 959 c-28 -17 -30 -18 -37 -1 -5 14 -7 14 -7 1 -1 -9 2 -18 5
-22 7 -7 60 18 69 33 8 13 6 12 -30 -11z"/>
<path d="M2094 956 c1 -8 5 -18 8 -22 4 -3 5 1 4 10 -1 8 -5 18 -8 22 -4 3 -5
-1 -4 -10z"/>
<path d="M2216 953 c-6 -14 -5 -15 5 -6 7 7 10 15 7 18 -3 3 -9 -2 -12 -12z"/>
<path d="M2435 950 c-3 -5 -1 -10 4 -10 6 0 11 5 11 10 0 6 -2 10 -4 10 -3 0
-8 -4 -11 -10z"/>
<path d="M2826 943 c-6 -14 -5 -15 5 -6 7 7 10 15 7 18 -3 3 -9 -2 -12 -12z"/>
<path d="M2270 943 c0 -6 8 -17 18 -24 16 -13 16 -13 2 6 -8 11 -16 22 -17 24
-2 2 -3 0 -3 -6z"/>
<path d="M2345 934 c-19 -14 -19 -14 1 -28 10 -8 21 -12 24 -10 2 3 -2 9 -10
14 -8 5 -11 12 -7 16 13 13 37 -18 31 -41 -8 -32 11 -40 36 -15 15 15 17 20 6
18 -8 -2 -25 11 -38 28 -21 29 -25 31 -43 18z m60 -53 c3 -5 1 -12 -5 -16 -5
-3 -10 1 -10 9 0 18 6 21 15 7z"/>
<path d="M2473 939 c-7 -7 -22 -12 -34 -13 -22 -1 -41 -26 -19 -26 6 0 9 4 6
9 -3 5 6 9 19 9 20 0 23 -3 14 -14 -8 -10 -8 -14 0 -14 10 0 15 13 12 33 0 4
4 7 9 7 6 0 10 -5 10 -12 0 -6 3 -9 6 -5 3 3 2 13 -3 21 -7 12 -12 13 -20 5z"/>
<path d="M2537 943 c-4 -3 -7 -13 -7 -22 1 -13 3 -13 11 2 11 19 8 33 -4 20z"/>
<path d="M2070 936 c0 -2 8 -10 18 -17 15 -13 16 -12 3 4 -13 16 -21 21 -21
13z"/>
<path d="M2783 924 c9 -11 14 -23 11 -26 -3 -3 0 -9 7 -14 7 -4 10 -3 5 4 -3
5 0 13 6 15 10 4 10 6 0 6 -8 1 -10 6 -6 14 4 6 4 9 -1 5 -4 -4 -15 -2 -24 4
-12 10 -12 7 2 -8z"/>
<path d="M2233 914 c0 -7 4 -11 8 -8 4 2 10 0 14 -6 3 -5 16 -10 28 -9 22 1
22 1 -1 7 -13 4 -22 11 -20 16 2 5 -4 10 -13 11 -9 2 -16 -3 -16 -11z"/>
<path d="M2557 923 c-13 -12 -7 -23 11 -22 10 0 12 3 4 6 -6 2 -10 9 -6 14 6
10 0 12 -9 2z"/>
<path d="M2606 918 c3 -5 10 -6 15 -3 13 9 11 12 -6 12 -8 0 -12 -4 -9 -9z"/>
<path d="M2710 918 c0 -4 4 -8 9 -8 6 0 12 4 15 8 3 5 -1 9 -9 9 -8 0 -15 -4
-15 -9z"/>
<path d="M2314 907 c3 -11 0 -20 -10 -24 -12 -4 -10 -9 11 -23 19 -12 23 -20
15 -25 -7 -4 -16 -2 -20 6 -5 8 -7 -2 -6 -24 4 -48 14 -58 33 -29 15 22 41 32
27 10 -4 -7 -3 -8 4 -4 6 4 9 13 6 21 -5 11 -10 12 -25 2 -10 -6 -19 -18 -19
-26 0 -12 -2 -13 -12 -2 -11 10 -8 16 12 33 l24 20 -24 18 c-25 19 -25 19 -2
17 12 -1 22 -5 22 -9 0 -4 5 -8 11 -8 8 0 7 5 -1 15 -7 9 -15 13 -18 10 -3 -3
-12 5 -20 17 -8 14 -11 16 -8 5z"/>
<path d="M2512 910 c2 -7 23 -23 46 -36 37 -21 41 -21 30 -5 -6 11 -17 17 -23
15 -6 -3 -21 5 -34 17 -13 13 -22 17 -19 9z"/>
<path d="M2753 907 c0 -8 6 -14 14 -14 9 0 10 4 2 14 -6 7 -12 13 -14 13 -1 0
-2 -6 -2 -13z"/>
<path d="M2092 880 c0 -14 2 -19 5 -12 2 6 2 18 0 25 -3 6 -5 1 -5 -13z"/>
<path d="M2487 884 c3 -7 9 -14 14 -14 14 0 10 17 -5 23 -10 4 -13 1 -9 -9z"/>
<path d="M2615 889 c-4 -6 -5 -12 -2 -15 2 -3 7 2 10 11 7 17 1 20 -8 4z"/>
<path d="M2205 880 c-3 -6 1 -7 9 -4 18 7 21 14 7 14 -6 0 -13 -4 -16 -10z"/>
<path d="M1755 870 c-3 -5 -1 -10 4 -10 6 0 11 5 11 10 0 6 -2 10 -4 10 -3 0
-8 -4 -11 -10z"/>
<path d="M2470 875 c0 -5 5 -17 10 -25 5 -8 10 -10 10 -5 0 6 -5 17 -10 25 -5
8 -10 11 -10 5z"/>
<path d="M2039 868 c-5 -18 -6 -39 -2 -34 4 3 11 1 18 -4 8 -7 12 -5 12 5 0 7
-5 13 -11 12 -6 -1 -10 4 -8 11 2 10 -6 19 -9 10z"/>
<path d="M2215 861 c-4 -7 0 -8 10 -5 10 4 15 2 13 -6 -2 -7 4 -15 12 -17 12
-4 12 -3 2 5 -8 5 -13 13 -12 18 2 13 -17 17 -25 5z"/>
<path d="M2422 850 c-7 -11 -12 -23 -12 -27 0 -5 5 0 11 10 5 9 15 17 21 17 6
0 5 -7 -3 -17 -13 -15 -12 -15 8 -2 12 7 21 14 20 14 -1 0 -9 6 -17 12 -13 10
-18 8 -28 -7z"/>
<path d="M2512 858 c-7 -7 -12 -17 -12 -23 0 -6 -10 -12 -22 -12 -13 -1 -35
-5 -50 -8 -20 -6 -29 -2 -37 14 -7 12 -16 21 -22 21 -5 0 0 -10 11 -22 19 -21
20 -24 4 -35 -9 -7 -20 -10 -24 -8 -5 3 -11 -2 -14 -11 -9 -23 -7 -31 3 -16 7
11 9 11 14 -1 3 -9 -2 -21 -11 -29 -11 -9 -14 -10 -8 0 4 6 2 12 -3 12 -6 0
-11 -4 -11 -8 0 -15 -41 -53 -51 -47 -5 4 -9 -1 -9 -10 0 -9 -4 -14 -9 -11 -5
3 -15 -2 -22 -11 -10 -12 -10 -14 -1 -9 7 4 12 2 12 -5 0 -7 -9 -9 -22 -6 -21
6 -22 5 -5 -8 11 -8 14 -16 8 -19 -16 -10 -3 -30 29 -44 17 -8 30 -18 30 -24
0 -6 -6 -6 -15 2 -10 9 -15 9 -15 1 0 -6 5 -11 11 -11 5 0 7 -6 3 -12 -4 -7 2
-4 14 6 19 17 22 17 22 3 0 -11 14 -20 43 -28 33 -8 52 -21 75 -52 18 -22 32
-36 32 -30 0 5 -11 23 -25 39 -30 35 -31 39 -6 41 14 1 18 -4 15 -20 -4 -20
-4 -20 6 2 7 16 16 22 30 18 10 -3 21 0 23 6 2 6 6 2 9 -10 6 -22 -18 -67 -31
-59 -4 3 -7 -4 -8 -15 -2 -17 1 -16 21 6 18 19 25 22 36 12 10 -9 11 -9 6 1
-4 6 -2 12 3 12 6 0 11 5 11 11 0 8 -4 8 -14 0 -11 -9 -13 -6 -13 13 0 22 2
24 18 15 11 -5 19 -6 19 -2 0 4 5 1 10 -7 8 -13 10 -12 10 3 0 10 5 15 10 12
6 -3 13 0 16 9 3 8 12 12 20 9 8 -3 11 -9 8 -14 -3 -5 2 -6 11 -3 14 6 12 10
-10 24 l-26 17 23 8 c13 4 27 7 31 6 5 -1 6 3 2 8 -3 6 4 16 15 23 12 7 34 34
49 59 16 25 40 58 55 74 26 28 26 28 6 45 -12 10 -35 21 -53 24 -18 3 -43 9
-57 12 -14 3 -31 6 -38 6 -7 1 -10 9 -7 22 5 19 5 19 -5 4 -12 -19 -40 -25
-40 -9 0 6 -18 8 -41 5 -34 -4 -40 -2 -37 12 2 10 10 20 18 22 13 5 13 3 0
-13 -13 -17 -13 -18 0 -10 8 5 24 8 35 7 14 -2 12 1 -9 12 -34 19 -29 19 -44
4z"/>
<path d="M2759 853 c-13 -16 -12 -17 4 -4 9 7 17 15 17 17 0 8 -8 3 -21 -13z"/>
<path d="M2793 855 c0 -8 4 -12 9 -9 5 3 6 10 3 15 -9 13 -12 11 -12 -6z"/>
<path d="M2186 844 c-4 -9 -4 -19 -1 -22 3 -3 5 0 5 7 0 7 4 9 10 6 6 -3 7 1
4 9 -8 20 -10 20 -18 0z"/>
<path d="M2606 845 c-9 -26 -7 -32 5 -12 6 10 9 21 6 23 -2 3 -7 -2 -11 -11z"/>
<path d="M1600 840 c-12 -7 -10 -9 7 -7 12 0 19 5 17 9 -6 10 -6 10 -24 -2z"/>
<path d="M2091 834 c0 -11 3 -14 6 -6 3 7 2 16 -1 19 -3 4 -6 -2 -5 -13z"/>
<path d="M1696 818 c3 -5 10 -6 15 -3 13 9 11 12 -6 12 -8 0 -12 -4 -9 -9z"/>
<path d="M1855 820 c3 -5 8 -10 11 -10 2 0 4 5 4 10 0 6 -5 10 -11 10 -5 0 -7
-4 -4 -10z"/>
<path d="M2214 815 c-4 -8 -10 -12 -15 -9 -5 3 -6 -3 -2 -12 4 -11 8 -13 11
-6 2 7 8 10 13 7 5 -4 6 1 3 10 -5 11 -2 14 10 9 9 -3 16 -4 16 -1 0 13 -31
15 -36 2z"/>
<path d="M2261 811 c-8 -15 -7 -20 6 -25 9 -4 18 -4 21 -1 3 3 0 5 -6 5 -7 0
-12 7 -12 16 0 8 5 12 10 9 6 -3 10 -1 10 4 0 18 -19 12 -29 -8z"/>
<path d="M2658 818 c5 -5 16 -8 23 -6 8 3 3 7 -10 11 -17 4 -21 3 -13 -5z"/>
<path d="M2730 820 c0 -5 5 -10 11 -10 5 0 7 5 4 10 -3 6 -8 10 -11 10 -2 0
-4 -4 -4 -10z"/>
<path d="M1593 805 c0 -8 4 -12 9 -9 5 3 6 10 3 15 -9 13 -12 11 -12 -6z"/>
<path d="M3075 811 c-3 -5 -2 -12 3 -15 5 -3 9 1 9 9 0 17 -3 19 -12 6z"/>
<path d="M1834 796 c1 -8 5 -18 8 -22 4 -3 5 1 4 10 -1 8 -5 18 -8 22 -4 3 -5
-1 -4 -10z"/>
<path d="M2095 799 c-3 -4 2 -6 10 -5 21 3 28 13 10 13 -9 0 -18 -4 -20 -8z"/>
<path d="M2817 795 c-4 -8 -3 -16 1 -19 4 -3 9 4 9 15 2 23 -3 25 -10 4z"/>
<path d="M2016 782 c-3 -4 4 -9 15 -9 23 -2 25 3 4 10 -8 4 -16 3 -19 -1z"/>
<path d="M2150 780 c0 -5 5 -10 10 -10 6 0 10 5 10 10 0 6 -4 10 -10 10 -5 0
-10 -4 -10 -10z"/>
<path d="M2217 773 c-3 -5 -4 -18 -2 -29 2 -10 4 -22 4 -26 2 -13 16 -9 38 11
12 11 24 17 29 13 4 -4 4 -1 0 6 -4 6 -3 12 3 12 5 0 12 -5 14 -10 3 -6 4 -5
3 2 -1 7 -11 14 -22 15 -10 1 -29 5 -40 8 -12 4 -24 3 -27 -2z m38 -9 c15 -6
14 -8 -1 -25 -9 -10 -21 -16 -26 -13 -5 3 -1 12 9 20 16 13 16 14 1 8 -10 -3
-18 -1 -18 5 0 12 11 14 35 5z"/>
<path d="M1596 758 c3 -5 10 -6 15 -3 13 9 11 12 -6 12 -8 0 -12 -4 -9 -9z"/>
<path d="M2157 753 c-10 -9 -9 -23 1 -23 5 0 9 7 9 15 0 17 -1 18 -10 8z"/>
<path d="M3056 743 c-6 -14 -5 -15 5 -6 7 7 10 15 7 18 -3 3 -9 -2 -12 -12z"/>
<path d="M1786 742 c-3 -5 1 -9 9 -9 8 0 12 4 9 9 -3 4 -7 8 -9 8 -2 0 -6 -4
-9 -8z"/>
<path d="M2043 738 c-13 -16 -13 -48 0 -48 5 0 6 7 3 16 -4 9 -1 23 5 30 6 8
9 14 6 14 -2 0 -9 -6 -14 -12z"/>
<path d="M1573 709 c-2 -23 3 -25 10 -4 4 8 3 16 -1 19 -4 3 -9 -4 -9 -15z"/>
<path d="M2265 713 c-16 -13 -17 -15 -2 -10 10 4 17 1 17 -6 0 -8 4 -6 10 3
21 32 7 39 -25 13z"/>
<path d="M2193 705 c0 -8 4 -15 9 -15 4 0 8 4 8 9 0 6 -4 12 -8 15 -5 3 -9 -1
-9 -9z"/>
<path d="M1719 693 c-13 -16 -12 -17 4 -4 16 13 21 21 13 21 -2 0 -10 -8 -17
-17z"/>
<path d="M1790 700 c0 -5 5 -10 11 -10 5 0 7 5 4 10 -3 6 -8 10 -11 10 -2 0
-4 -4 -4 -10z"/>
<path d="M2064 702 c4 -3 14 -7 22 -8 9 -1 13 0 10 4 -4 3 -14 7 -22 8 -9 1
-13 0 -10 -4z"/>
<path d="M2113 703 c4 -3 1 -13 -6 -22 -11 -14 -10 -14 5 -2 16 12 16 31 1 31
-4 0 -3 -3 0 -7z"/>
<path d="M2155 680 c-3 -6 1 -7 9 -4 18 7 21 14 7 14 -6 0 -13 -4 -16 -10z"/>
<path d="M2228 683 c6 -2 18 -2 25 0 6 3 1 5 -13 5 -14 0 -19 -2 -12 -5z"/>
<path d="M2210 660 c-9 -6 -10 -10 -3 -10 6 0 15 5 18 10 8 12 4 12 -15 0z"/>
<path d="M2960 660 c-9 -6 -10 -10 -3 -10 6 0 15 5 18 10 8 12 4 12 -15 0z"/>
<path d="M2075 651 c-3 -5 0 -13 6 -17 7 -4 9 -3 5 4 -3 5 0 13 6 15 9 4 10 6
1 6 -6 1 -14 -3 -18 -8z"/>
<path d="M1516 633 c-6 -14 -5 -15 5 -6 7 7 10 15 7 18 -3 3 -9 -2 -12 -12z"/>
<path d="M1570 639 c0 -5 5 -7 10 -4 6 3 10 8 10 11 0 2 -4 4 -10 4 -5 0 -10
-5 -10 -11z"/>
<path d="M1636 638 c3 -5 10 -6 15 -3 13 9 11 12 -6 12 -8 0 -12 -4 -9 -9z"/>
<path d="M1675 641 c-3 -5 -2 -12 3 -15 5 -3 9 1 9 9 0 17 -3 19 -12 6z"/>
<path d="M1726 638 c3 -5 10 -6 15 -3 13 9 11 12 -6 12 -8 0 -12 -4 -9 -9z"/>
<path d="M2105 640 c-3 -6 1 -7 9 -4 18 7 21 14 7 14 -6 0 -13 -4 -16 -10z"/>
<path d="M2156 635 c-11 -8 -15 -15 -9 -15 7 0 15 5 18 10 4 6 11 8 16 5 5 -4
9 -1 9 4 0 15 -11 13 -34 -4z"/>
<path d="M1599 628 c-5 -18 -6 -38 -1 -34 7 8 12 36 6 36 -2 0 -4 -1 -5 -2z"/>
<path d="M2069 617 c6 -8 7 -18 3 -22 -4 -5 -1 -5 6 -1 10 6 10 11 1 22 -6 8
-14 14 -16 14 -3 0 0 -6 6 -13z"/>
<path d="M2116 621 c-3 -5 2 -15 12 -22 15 -12 16 -12 5 2 -7 9 -10 19 -6 22
3 4 4 7 0 7 -3 0 -8 -4 -11 -9z"/>
<path d="M2039 618 c-5 -18 -6 -38 -1 -34 7 8 12 36 6 36 -2 0 -4 -1 -5 -2z"/>
<path d="M2195 610 c3 -5 8 -10 11 -10 2 0 4 5 4 10 0 6 -5 10 -11 10 -5 0 -7
-4 -4 -10z"/>
<path d="M2750 616 c0 -2 8 -10 18 -17 15 -13 16 -12 3 4 -13 16 -21 21 -21
13z"/>
<path d="M2909 603 c-13 -16 -12 -17 4 -4 16 13 21 21 13 21 -2 0 -10 -8 -17
-17z"/>
<path d="M2947 599 c7 -7 15 -10 18 -7 3 3 -2 9 -12 12 -14 6 -15 5 -6 -5z"/>
<path d="M1856 587 c3 -10 9 -15 12 -12 3 3 0 11 -7 18 -10 9 -11 8 -5 -6z"/>
<path d="M2193 576 c3 -8 2 -17 -4 -20 -5 -2 -4 -3 2 -2 15 3 21 36 7 36 -6 0
-8 -6 -5 -14z"/>
<path d="M1584 558 l-19 -23 23 19 c21 18 27 26 19 26 -2 0 -12 -10 -23 -22z"/>
<path d="M2890 576 c0 -2 8 -10 18 -17 15 -13 16 -12 3 4 -13 16 -21 21 -21
13z"/>
<path d="M1690 566 c0 -2 7 -7 16 -10 8 -3 12 -2 9 4 -6 10 -25 14 -25 6z"/>
<path d="M1986 562 c-3 -5 1 -9 9 -9 8 0 12 4 9 9 -3 4 -7 8 -9 8 -2 0 -6 -4
-9 -8z"/>
<path d="M2706 562 c-3 -5 1 -9 9 -9 8 0 12 4 9 9 -3 4 -7 8 -9 8 -2 0 -6 -4
-9 -8z"/>
<path d="M2933 555 c0 -7 6 -11 14 -8 7 3 13 6 13 8 0 2 -6 5 -13 8 -8 3 -14
-1 -14 -8z"/>
<path d="M2230 551 c0 -6 4 -13 10 -16 6 -3 7 1 4 9 -7 18 -14 21 -14 7z"/>
<path d="M1634 530 c0 -13 4 -16 10 -10 7 7 7 13 0 20 -6 6 -10 3 -10 -10z"/>
<path d="M1675 543 c3 -3 -2 -14 -11 -24 -10 -11 -12 -19 -4 -24 6 -4 9 -1 8
7 -2 7 2 12 9 11 12 -2 12 23 0 32 -4 3 -5 2 -2 -2z"/>
<path d="M2115 530 c-4 -6 -11 -8 -16 -5 -5 4 -9 1 -9 -4 0 -16 16 -13 30 4 7
8 10 15 7 15 -3 0 -9 -5 -12 -10z"/>
<path d="M2716 527 c3 -10 9 -15 12 -12 3 3 0 11 -7 18 -10 9 -11 8 -5 -6z"/>
<path d="M1570 520 c0 -5 5 -10 11 -10 5 0 7 5 4 10 -3 6 -8 10 -11 10 -2 0
-4 -4 -4 -10z"/>
<path d="M1875 521 c-3 -5 -2 -12 3 -15 5 -3 9 1 9 9 0 17 -3 19 -12 6z"/>
<path d="M2050 516 c7 -7 13 -7 20 0 6 6 3 10 -10 10 -13 0 -16 -4 -10 -10z"/>
<path d="M2141 513 c-5 -10 -12 -17 -15 -15 -17 7 -17 0 -1 -18 20 -22 8 -28
-15 -7 -12 10 -12 9 -1 -5 11 -15 11 -18 1 -18 -8 0 -11 -3 -8 -6 4 -3 16 0
28 6 16 8 19 15 11 24 -8 9 -5 19 10 34 11 12 15 22 10 22 -6 0 -14 -8 -20
-17z"/>
<path d="M2182 513 c-16 -13 -15 -13 3 -5 11 5 26 7 33 5 6 -3 12 -1 12 5 0
13 -28 11 -48 -5z"/>
<path d="M2946 518 c3 -4 11 -5 19 -1 21 7 19 12 -4 10 -11 0 -18 -5 -15 -9z"/>
<path d="M1995 511 c-3 -5 -2 -12 3 -15 5 -3 9 1 9 9 0 17 -3 19 -12 6z"/>
<path d="M1696 495 c-9 -26 -7 -32 5 -12 6 10 9 21 6 23 -2 3 -7 -2 -11 -11z"/>
<path d="M1730 500 c0 -5 5 -10 11 -10 5 0 7 5 4 10 -3 6 -8 10 -11 10 -2 0
-4 -4 -4 -10z"/>
<path d="M1900 504 c0 -1 8 -8 17 -15 9 -8 14 -9 10 -2 -4 6 -1 13 5 16 7 3 3
4 -9 4 -13 -1 -23 -2 -23 -3z"/>
<path d="M2284 499 c-4 -7 -3 -9 4 -5 5 3 13 0 15 -6 4 -9 6 -10 6 -1 1 17
-16 25 -25 12z"/>
<path d="M2690 500 c0 -5 5 -10 11 -10 5 0 7 5 4 10 -3 6 -8 10 -11 10 -2 0
-4 -4 -4 -10z"/>
<path d="M3010 499 c0 -5 5 -7 10 -4 6 3 10 8 10 11 0 2 -4 4 -10 4 -5 0 -10
-5 -10 -11z"/>
<path d="M2075 490 c3 -5 8 -10 11 -10 2 0 4 5 4 10 0 6 -5 10 -11 10 -5 0 -7
-4 -4 -10z"/>
<path d="M2200 494 c0 -6 7 -19 15 -30 8 -10 14 -14 14 -9 0 6 -6 19 -14 29
-8 11 -15 15 -15 10z"/>
<path d="M2230 490 c0 -5 5 -10 10 -10 6 0 10 5 10 10 0 6 -4 10 -10 10 -5 0
-10 -4 -10 -10z"/>
<path d="M2159 477 c7 -7 14 -8 21 -1 6 6 2 10 -12 11 -16 2 -18 -1 -9 -10z"/>
<path d="M2346 475 c4 -8 10 -15 15 -15 4 0 6 7 3 15 -4 8 -10 15 -15 15 -4 0
-6 -7 -3 -15z"/>
<path d="M2475 480 c3 -5 11 -10 16 -10 6 0 7 5 4 10 -3 6 -11 10 -16 10 -6 0
-7 -4 -4 -10z"/>
<path d="M2662 476 c10 -7 14 -17 10 -21 -4 -5 -1 -5 6 -1 10 6 10 11 1 22 -6
8 -17 14 -23 14 -6 0 -3 -7 6 -14z"/>
<path d="M3034 482 c3 -5 1 -12 -6 -14 -6 -2 -12 -15 -14 -29 -1 -13 0 -18 2
-12 3 7 6 16 6 20 1 5 8 13 16 19 12 9 12 13 2 19 -8 5 -11 4 -6 -3z"/>
<path d="M2015 471 c-3 -5 -2 -12 3 -15 5 -3 9 1 9 9 0 17 -3 19 -12 6z"/>
<path d="M2320 471 c0 -6 4 -13 10 -16 6 -3 7 1 4 9 -7 18 -14 21 -14 7z"/>
<path d="M2623 473 c-7 -3 -13 -9 -13 -15 0 -7 5 -7 13 1 16 12 27 5 27 -18 0
-14 -2 -14 -10 -1 -5 8 -10 11 -10 5 0 -5 4 -16 9 -24 7 -11 10 -9 16 9 8 25
-12 51 -32 43z"/>
<path d="M3135 469 c-4 -6 -5 -12 -2 -15 2 -3 7 2 10 11 7 17 1 20 -8 4z"/>
<path d="M1896 458 c3 -5 10 -6 15 -3 13 9 11 12 -6 12 -8 0 -12 -4 -9 -9z"/>
<path d="M2070 460 c0 -5 5 -10 10 -10 6 0 10 5 10 10 0 6 -4 10 -10 10 -5 0
-10 -4 -10 -10z"/>
<path d="M2193 451 c0 -11 5 -18 9 -15 4 3 5 11 1 19 -7 21 -12 19 -10 -4z"/>
<path d="M2244 459 c-5 -8 -3 -9 5 -5 24 15 6 -29 -19 -48 -15 -11 -18 -16 -7
-12 11 3 20 0 23 -9 4 -8 11 -15 17 -15 5 0 2 9 -7 19 -12 13 -14 20 -5 23 15
5 22 45 10 53 -5 3 -13 0 -17 -6z"/>
<path d="M2460 460 c0 -6 7 -10 15 -10 8 0 15 2 15 4 0 2 -7 6 -15 10 -8 3
-15 1 -15 -4z"/>
<path d="M1935 449 c-4 -6 -5 -12 -2 -15 2 -3 7 2 10 11 7 17 1 20 -8 4z"/>
<path d="M1716 433 c-6 -14 -5 -15 5 -6 7 7 10 15 7 18 -3 3 -9 -2 -12 -12z"/>
<path d="M1750 439 c0 -5 5 -7 10 -4 6 3 10 8 10 11 0 2 -4 4 -10 4 -5 0 -10
-5 -10 -11z"/>
<path d="M1794 436 c1 -8 5 -18 8 -22 4 -3 5 1 4 10 -1 8 -5 18 -8 22 -4 3 -5
-1 -4 -10z"/>
<path d="M1820 446 c0 -2 8 -10 18 -17 15 -13 16 -12 3 4 -13 16 -21 21 -21
13z"/>
<path d="M2056 437 c3 -10 9 -15 12 -12 3 3 0 11 -7 18 -10 9 -11 8 -5 -6z"/>
<path d="M2140 440 c-18 -12 -2 -12 25 0 13 6 15 9 5 9 -8 0 -22 -4 -30 -9z"/>
<path d="M2287 439 c7 -7 15 -10 18 -7 3 3 -2 9 -12 12 -14 6 -15 5 -6 -5z"/>
<path d="M2360 443 c17 -7 49 -44 50 -57 0 -5 -8 -2 -18 7 -10 10 -23 17 -28
17 -5 0 -1 -5 9 -11 10 -6 16 -17 13 -27 -3 -9 -1 -24 4 -32 9 -13 12 -13 21
3 5 9 17 17 25 17 14 0 14 -2 0 -16 -24 -23 -19 -27 8 -7 21 15 22 19 8 27 -9
5 -22 4 -35 -3 -25 -16 -36 -5 -11 13 18 14 18 15 1 33 -26 30 -20 40 8 13 13
-12 22 -27 19 -31 -3 -5 0 -9 5 -9 37 0 -26 65 -64 67 -16 1 -23 -1 -15 -4z"/>
<path d="M2581 440 c-9 -5 -4 -7 13 -7 29 0 32 2 13 10 -8 3 -20 2 -26 -3z"/>
<path d="M2710 440 c0 -5 5 -10 11 -10 5 0 7 5 4 10 -3 6 -8 10 -11 10 -2 0
-4 -4 -4 -10z"/>
<path d="M2217 429 c-10 -6 -25 -8 -33 -5 -9 3 -12 1 -9 -4 9 -15 41 -12 55 5
15 18 12 18 -13 4z"/>
<path d="M2550 435 c0 -3 11 -21 26 -40 14 -18 21 -36 15 -39 -5 -3 -11 -1
-13 6 -3 8 -9 8 -24 -1 -14 -10 -15 -11 -2 -7 10 3 20 1 23 -4 3 -5 -3 -11
-12 -13 -13 -3 -14 -5 -3 -6 22 -1 80 57 74 74 -4 8 -8 15 -11 15 -3 0 -3 -6
0 -14 6 -16 -16 -40 -26 -29 -10 9 -9 25 1 19 5 -3 9 1 9 9 0 18 -17 20 -17 3
-1 -7 -10 -2 -20 11 -11 13 -20 20 -20 16z"/>
<path d="M3037 433 c-4 -3 -7 -11 -7 -17 0 -6 5 -5 12 2 6 6 9 14 7 17 -3 3
-9 2 -12 -2z"/>
<path d="M2000 420 c-12 -7 -10 -9 7 -7 12 0 19 5 17 9 -6 10 -6 10 -24 -2z"/>
<path d="M2085 404 c-9 -15 -12 -23 -6 -20 11 7 35 46 28 46 -3 0 -12 -12 -22
-26z"/>
<path d="M2336 414 c-8 -21 -8 -24 5 -24 5 0 8 4 4 9 -3 6 3 14 12 20 16 9 16
10 2 11 -9 0 -20 -7 -23 -16z"/>
<path d="M2680 420 c20 -13 33 -13 25 0 -3 6 -14 10 -23 10 -15 0 -15 -2 -2
-10z"/>
<path d="M2150 411 c0 -5 5 -13 10 -16 6 -3 10 -2 10 4 0 5 -4 13 -10 16 -5 3
-10 2 -10 -4z"/>
<path d="M2275 409 c-11 -16 -1 -19 13 -3 7 8 8 14 3 14 -5 0 -13 -5 -16 -11z"/>
<path d="M2502 411 c-11 -7 -10 -10 3 -15 25 -9 32 -7 15 5 -12 9 -11 10 8 6
12 -3 20 -1 16 4 -7 11 -25 11 -42 0z"/>
<path d="M2831 407 c-8 -10 -7 -14 2 -14 8 0 14 6 14 14 0 7 -1 13 -2 13 -2 0
-8 -6 -14 -13z"/>
<path d="M3133 407 c0 -8 6 -14 14 -14 9 0 10 4 2 14 -6 7 -12 13 -14 13 -1 0
-2 -6 -2 -13z"/>
<path d="M1910 406 c0 -2 7 -7 16 -10 8 -3 12 -2 9 4 -6 10 -25 14 -25 6z"/>
<path d="M2300 400 c-9 -6 -10 -10 -3 -10 6 0 15 5 18 10 8 12 4 12 -15 0z"/>
<path d="M2672 390 c7 -10 14 -18 15 -16 6 6 -9 36 -18 36 -5 0 -4 -9 3 -20z"/>
<path d="M3050 400 c0 -5 5 -10 10 -10 6 0 10 5 10 10 0 6 -4 10 -10 10 -5 0
-10 -4 -10 -10z"/>
<path d="M2708 393 c7 -3 16 -2 19 1 4 3 -2 6 -13 5 -11 0 -14 -3 -6 -6z"/>
<path d="M2175 380 c-3 -5 -3 -10 1 -10 4 0 -1 -7 -12 -16 -18 -14 -18 -15 4
-4 12 6 20 15 17 21 -4 5 -1 9 5 9 8 0 10 -10 6 -27 -5 -23 -4 -25 5 -10 12
20 6 47 -10 47 -5 0 -13 -4 -16 -10z"/>
<path d="M2350 380 c-13 -8 -12 -10 3 -10 9 0 17 5 17 10 0 12 -1 12 -20 0z"/>
<path d="M2460 377 c0 -5 6 -7 13 -4 6 2 21 0 32 -6 18 -9 18 -8 7 6 -14 16
-52 19 -52 4z"/>
<path d="M2535 380 c-8 -13 5 -13 25 0 13 8 13 10 -2 10 -9 0 -20 -4 -23 -10z"/>
<path d="M2645 380 c-6 -9 -4 -11 5 -5 10 6 12 4 7 -9 -4 -9 -3 -15 2 -11 5 3
12 -1 14 -7 3 -7 6 -8 6 -2 1 5 -5 18 -12 29 -11 14 -16 15 -22 5z"/>
<path d="M3097 383 c-8 -17 -1 -48 11 -45 17 3 15 -13 -3 -28 -8 -7 -15 -18
-14 -24 0 -7 2 -6 6 2 2 6 10 9 16 5 7 -3 9 -3 5 2 -4 4 -3 14 3 21 12 14 3
38 -11 29 -5 -3 -8 4 -7 15 1 15 6 19 22 14 16 -4 17 -3 5 5 -18 13 -27 14
-33 4z"/>
<path d="M1953 365 c0 -8 4 -15 9 -15 4 0 8 4 8 9 0 6 -4 12 -8 15 -5 3 -9 -1
-9 -9z"/>
<path d="M2230 371 c0 -10 19 -25 25 -20 1 2 -3 10 -11 17 -8 7 -14 8 -14 3z"/>
<path d="M2273 353 c-16 -33 -16 -43 -2 -43 5 0 7 5 4 10 -4 6 -1 17 5 25 7 8
10 19 8 24 -1 6 -9 -2 -15 -16z"/>
<path d="M2310 374 c0 -5 14 -18 30 -28 17 -9 27 -22 24 -28 -4 -7 -2 -8 4 -4
13 8 5 36 -11 36 -6 0 -19 7 -29 17 -10 9 -18 12 -18 7z"/>
<path d="M2753 360 c-3 -11 -10 -17 -17 -13 -6 3 -8 2 -3 -2 4 -5 16 -9 27
-10 15 -1 17 1 9 11 -6 7 -8 18 -4 24 3 5 3 10 0 10 -4 0 -9 -9 -12 -20z"/>
<path d="M2973 358 c0 -13 1 -17 4 -10 3 6 10 9 16 5 7 -4 6 1 -2 10 -17 21
-17 21 -18 -5z"/>
<path d="M3033 365 c0 -8 4 -12 9 -9 4 3 8 9 8 15 0 5 -4 9 -8 9 -5 0 -9 -7
-9 -15z"/>
<path d="M3052 344 c-22 -34 -22 -61 0 -48 8 5 9 1 5 -10 -5 -11 -3 -15 5 -10
7 5 9 2 5 -9 -4 -11 -2 -14 8 -11 12 5 12 10 -1 30 -9 13 -20 21 -25 18 -15
-9 -10 5 13 36 12 16 20 32 17 34 -2 3 -14 -11 -27 -30z"/>
<path d="M1834 362 c4 -3 14 -7 22 -8 9 -1 13 0 10 4 -4 3 -14 7 -22 8 -9 1
-13 0 -10 -4z"/>
<path d="M2046 358 c3 -5 10 -6 15 -3 13 9 11 12 -6 12 -8 0 -12 -4 -9 -9z"/>
<path d="M2708 363 c7 -3 16 -2 19 1 4 3 -2 6 -13 5 -11 0 -14 -3 -6 -6z"/>
<path d="M3510 361 c0 -5 5 -13 10 -16 6 -3 10 -2 10 4 0 5 -4 13 -10 16 -5 3
-10 2 -10 -4z"/>
<path d="M2618 347 c-7 -7 -22 -18 -32 -24 -18 -10 -18 -11 3 -18 16 -5 28 -2
38 8 14 14 18 13 39 -10 13 -14 24 -21 24 -14 0 6 -7 14 -15 17 -8 4 -13 10
-10 14 9 15 -23 19 -35 4 -7 -8 -19 -14 -27 -14 -9 0 -3 10 14 25 15 13 25 25
21 25 -4 0 -13 -6 -20 -13z"/>
<path d="M3142 338 c7 -15 15 -23 17 -17 2 6 -4 18 -13 27 -15 15 -15 15 -4
-10z"/>
<path d="M3555 351 c-6 -11 13 -26 22 -17 4 3 1 6 -6 6 -7 0 -9 5 -6 10 3 6 4
10 1 10 -3 0 -7 -4 -11 -9z"/>
<path d="M2211 331 c-7 -13 -6 -18 4 -18 7 0 11 6 8 14 -4 9 0 11 11 7 9 -3
16 -4 16 -1 0 15 -31 14 -39 -2z"/>
<path d="M2297 343 c-4 -3 -7 -11 -7 -17 0 -6 5 -5 12 2 6 6 9 14 7 17 -3 3
-9 2 -12 -2z"/>
<path d="M2499 329 c-14 -28 2 -46 23 -25 9 8 19 12 23 8 4 -4 1 3 -6 16 -17
27 -25 28 -40 1z m20 -15 c-15 -18 -22 -13 -13 10 3 9 10 13 16 10 5 -3 4 -12
-3 -20z"/>
<path d="M2703 336 c24 -19 21 -29 -5 -16 l-23 11 23 -17 c21 -16 32 -42 12
-29 -5 3 -10 1 -10 -5 0 -23 25 -3 26 21 2 26 -12 49 -30 49 -6 0 -3 -7 7 -14z"/>
<path d="M3466 341 c-4 -5 3 -7 14 -4 16 4 19 2 14 -13 -5 -15 -4 -16 4 -4 6
8 8 18 6 22 -7 11 -32 10 -38 -1z"/>
<path d="M2016 327 c3 -10 9 -15 12 -12 3 3 0 11 -7 18 -10 9 -11 8 -5 -6z"/>
<path d="M2316 325 c-9 -26 -7 -32 5 -12 6 10 9 21 6 23 -2 3 -7 -2 -11 -11z"/>
<path d="M2457 329 c-9 -6 -15 -15 -11 -21 4 -6 -1 -8 -16 -3 -16 5 -20 4 -15
-5 4 -6 16 -10 26 -7 21 6 26 -8 7 -16 -10 -4 -10 -6 -1 -6 19 -2 26 19 11 36
-11 15 -11 16 5 10 10 -4 16 -3 12 2 -3 5 1 12 7 14 7 3 9 6 3 6 -5 0 -18 -4
-28 -10z"/>
<path d="M2106 322 c-3 -5 1 -9 9 -9 8 0 12 4 9 9 -3 4 -7 8 -9 8 -2 0 -6 -4
-9 -8z"/>
<path d="M2336 315 c-3 -8 -1 -15 4 -15 6 0 10 7 10 15 0 8 -2 15 -4 15 -2 0
-6 -7 -10 -15z"/>
<path d="M2810 318 c0 -4 4 -8 9 -8 6 0 12 4 15 8 3 5 -1 9 -9 9 -8 0 -15 -4
-15 -9z"/>
<path d="M2976 319 c3 -5 10 -6 16 -3 8 5 9 1 5 -10 -4 -11 -3 -15 4 -11 14
10 6 28 -14 31 -9 1 -15 -2 -11 -7z"/>
<path d="M3070 320 c0 -5 5 -10 10 -10 6 0 10 5 10 10 0 6 -4 10 -10 10 -5 0
-10 -4 -10 -10z"/>
<path d="M3530 320 c0 -5 5 -10 10 -10 6 0 10 5 10 10 0 6 -4 10 -10 10 -5 0
-10 -4 -10 -10z"/>
<path d="M2373 301 c-23 -20 -28 -62 -6 -54 7 3 13 9 13 15 0 5 -4 6 -10 3 -5
-3 -10 -1 -10 5 0 6 6 13 14 16 8 3 17 12 20 20 7 18 6 17 -21 -5z"/>
<path d="M3513 301 c1 -11 7 -23 14 -26 11 -4 11 0 2 18 -16 31 -18 32 -16 8z"/>
<path d="M2249 299 c5 -6 7 -17 5 -24 -3 -6 3 -18 13 -26 10 -7 15 -9 11 -5
-4 5 -2 16 5 25 11 14 10 14 -5 2 -13 -10 -18 -10 -18 -1 0 6 9 14 20 17 11 3
20 9 20 15 0 5 -8 5 -18 -1 -12 -6 -23 -7 -30 -1 -8 7 -9 7 -3 -1z"/>
<path d="M2748 303 c7 -3 17 -15 22 -27 8 -22 40 -32 40 -13 0 5 -7 6 -16 3
-12 -4 -15 -2 -10 9 3 8 1 15 -5 15 -6 0 -8 4 -5 8 2 4 -5 8 -17 9 -12 0 -16
-1 -9 -4z"/>
<path d="M2876 302 c-3 -5 1 -9 9 -9 8 0 12 4 9 9 -3 4 -7 8 -9 8 -2 0 -6 -4
-9 -8z"/>
<path d="M3170 299 c0 -5 5 -7 10 -4 6 3 10 8 10 11 0 2 -4 4 -10 4 -5 0 -10
-5 -10 -11z"/>
<path d="M3555 299 c-4 -6 -4 -13 -1 -16 3 -4 6 -1 6 5 0 6 7 9 17 5 11 -4 14
-3 9 5 -9 15 -23 15 -31 1z"/>
<path d="M2095 289 c-4 -6 -5 -12 -2 -15 2 -3 7 2 10 11 7 17 1 20 -8 4z"/>
<path d="M2211 286 c-9 -11 -9 -16 1 -22 7 -4 10 -4 6 1 -4 4 -3 14 3 22 6 7
9 13 6 13 -2 0 -10 -6 -16 -14z"/>
<path d="M2540 290 c-13 -9 -13 -11 0 -20 8 -5 20 -10 25 -10 6 0 3 4 -5 10
-8 5 -11 12 -7 17 5 4 17 -3 28 -17 15 -20 18 -21 12 -5 -11 33 -28 41 -53 25z"/>
<path d="M2630 290 c0 -5 5 -10 10 -10 6 0 10 5 10 10 0 6 -4 10 -10 10 -5 0
-10 -4 -10 -10z"/>
<path d="M3143 293 c-15 -5 -18 -24 -4 -20 9 2 11 -2 11 -28 0 -10 -10 -15
-31 -15 -21 0 -28 4 -24 13 4 6 0 4 -9 -6 -8 -11 -31 -20 -50 -22 -33 -3 -36
-2 -32 21 3 13 0 27 -6 30 -7 5 -8 2 -3 -6 6 -9 4 -12 -7 -8 -8 4 -15 1 -15
-7 0 -7 6 -11 14 -8 9 4 11 0 7 -11 -4 -11 -12 -15 -23 -10 -31 12 -96 27
-118 25 -13 0 -23 5 -23 12 0 9 -2 9 -8 0 -11 -17 -114 -12 -130 7 -11 13 -11
13 -7 -1 5 -14 -5 -16 -72 -15 -43 0 -81 5 -85 11 -5 6 -8 5 -8 -2 0 -7 -5
-13 -11 -13 -5 0 -7 5 -4 10 3 6 2 10 -4 10 -5 0 -11 -6 -14 -12 -2 -7 -8 -10
-12 -6 -4 4 -2 14 5 23 7 9 11 18 8 20 -3 3 -11 -6 -18 -20 -7 -14 -17 -25
-22 -25 -5 0 -6 4 -3 10 3 5 1 10 -4 10 -6 0 -11 -5 -11 -12 0 -6 -3 -8 -7 -5
-3 4 -13 1 -21 -6 -13 -10 -14 -9 -7 3 7 12 6 13 -6 4 -8 -7 -40 -11 -72 -10
-46 1 -62 5 -74 21 -14 19 -14 19 -11 1 2 -10 -3 -21 -11 -24 -8 -2 -11 0 -7
6 3 5 -1 12 -9 15 -9 4 -12 1 -8 -9 4 -11 -8 -14 -68 -14 -41 0 -96 -3 -124
-5 -27 -3 -126 -12 -220 -20 -235 -22 -385 -54 -385 -83 0 -23 46 -45 131 -62
103 -21 291 -43 352 -40 22 0 36 -3 33 -8 -3 -6 283 -10 736 -10 443 0 736 3
727 9 -21 13 37 12 63 -2 13 -7 18 -7 14 -1 -4 6 2 11 11 11 10 0 31 3 47 7
23 6 27 4 21 -7 -7 -11 -6 -12 6 -3 16 13 51 15 43 3 -2 -4 1 -11 7 -15 8 -4
9 -3 5 4 -8 13 22 31 50 30 32 -1 187 34 217 49 59 30 21 61 -105 87 -43 9
-90 16 -105 16 -39 0 -74 11 -68 20 3 5 0 12 -6 16 -8 4 -9 3 -5 -4 7 -12 2
-14 -34 -14 -48 0 -61 3 -55 12 3 6 1 10 -4 10 -6 0 -11 -4 -11 -10 0 -5 -13
-10 -30 -10 -27 0 -35 9 -31 33 1 5 -3 6 -9 2 -6 -3 -8 -11 -5 -16 4 -5 2 -9
-4 -9 -5 0 -13 5 -16 10 -3 6 -12 10 -18 10 -9 0 -8 -3 1 -8 7 -5 -10 -9 -42
-10 -45 -1 -54 1 -49 13 3 8 0 15 -6 15 -6 0 -11 -4 -11 -8 0 -5 -14 -9 -30
-10 -21 0 -28 3 -24 11 5 8 3 8 -7 0 -18 -17 -29 -16 -29 3 0 8 5 12 10 9 6
-3 13 1 16 9 3 9 11 13 17 9 6 -4 7 -1 2 7 -6 10 -11 10 -20 -4 -10 -13 -14
-14 -24 -3 -6 8 -8 17 -4 20 7 8 4 8 -14 0z"/>
<path d="M1815 280 c3 -5 8 -10 11 -10 2 0 4 5 4 10 0 6 -5 10 -11 10 -5 0 -7
-4 -4 -10z"/>
<path d="M2166 282 c-3 -5 1 -9 9 -9 8 0 15 4 15 9 0 4 -4 8 -9 8 -6 0 -12 -4
-15 -8z"/>
<path d="M2302 270 c-7 -11 -10 -20 -7 -20 3 0 14 9 25 20 12 12 15 20 7 20
-7 0 -18 -9 -25 -20z"/>
<path d="M2397 283 c-12 -11 -8 -23 7 -23 8 0 18 4 21 10 4 6 -1 7 -11 3 -12
-4 -15 -3 -10 5 8 13 3 16 -7 5z"/>
<path d="M2606 281 c-3 -5 1 -14 9 -21 10 -9 15 -9 15 -1 0 6 -5 11 -11 11 -5
0 -7 5 -4 10 3 6 4 10 1 10 -3 0 -7 -4 -10 -9z"/>
<path d="M2656 274 c-4 -9 -4 -19 -1 -22 2 -3 7 3 11 12 4 9 4 19 1 22 -2 3
-7 -3 -11 -12z"/>
<path d="M2736 274 c-4 -9 -4 -19 -1 -22 2 -3 7 3 11 12 4 9 4 19 1 22 -2 3
-7 -3 -11 -12z"/>
<path d="M2959 273 c-13 -16 -12 -17 4 -4 9 7 17 15 17 17 0 8 -8 3 -21 -13z"/>
<path d="M3010 280 c0 -5 5 -10 10 -10 6 0 10 5 10 10 0 6 -4 10 -10 10 -5 0
-10 -4 -10 -10z"/>
<path d="M3321 274 c0 -11 3 -14 6 -6 3 7 2 16 -1 19 -3 4 -6 -2 -5 -13z"/>
<path d="M3585 277 c-15 -12 -16 -15 -4 -22 8 -5 11 -5 7 0 -4 4 0 14 10 21
23 18 11 18 -13 1z"/>
<path d="M2836 267 c3 -10 9 -15 12 -12 3 3 0 11 -7 18 -10 9 -11 8 -5 -6z"/>
<path d="M2325 260 c-3 -5 -1 -10 4 -10 6 0 11 5 11 10 0 6 -2 10 -4 10 -3 0
-8 -4 -11 -10z"/>
<path d="M2876 258 c3 -5 10 -6 15 -3 13 9 11 12 -6 12 -8 0 -12 -4 -9 -9z"/>
<path d="M2915 260 c3 -5 8 -10 11 -10 2 0 4 5 4 10 0 6 -5 10 -11 10 -5 0 -7
-4 -4 -10z"/>
<path d="M3230 259 c0 -5 5 -7 10 -4 6 3 10 8 10 11 0 2 -4 4 -10 4 -5 0 -10
-5 -10 -11z"/>
<path d="M3301 253 c12 -15 12 -16 -6 -9 -14 5 -17 4 -9 -4 6 -6 18 -8 27 -4
14 5 14 8 2 20 -19 20 -30 17 -14 -3z"/>
<path d="M3496 262 c-2 -4 0 -14 6 -22 8 -12 9 -12 5 2 -3 9 -1 19 6 22 9 3 9
5 0 5 -6 1 -14 -3 -17 -7z"/>
<path d="M3553 244 c0 -17 2 -22 7 -13 5 6 6 18 3 26 -8 19 -10 16 -10 -13z"/>
<path d="M1876 247 c3 -10 9 -15 12 -12 3 3 0 11 -7 18 -10 9 -11 8 -5 -6z"/>
<path d="M3115 250 c-3 -5 -1 -10 4 -10 6 0 11 5 11 10 0 6 -2 10 -4 10 -3 0
-8 -4 -11 -10z"/>
<path d="M1826 238 c3 -4 9 -8 15 -8 5 0 9 4 9 8 0 5 -7 9 -15 9 -8 0 -12 -4
-9 -9z"/>
<path d="M3614 18 c-4 -7 -4 -10 1 -6 4 4 15 2 24 -5 14 -11 14 -10 2 6 -16
20 -18 21 -27 5z"/>
<path d="M3826 18 c3 -5 10 -6 15 -3 13 9 11 12 -6 12 -8 0 -12 -4 -9 -9z"/>
</g>
</svg>
